<svg width="168" height="168" viewBox="0 0 168 168" fill="none" xmlns="http://www.w3.org/2000/svg">
<path fill-rule="evenodd" clip-rule="evenodd" d="M83.9974 167.335C130.021 167.335 167.331 130.025 167.331 84.0013C167.331 37.9776 130.021 0.667969 83.9974 0.667969C37.9737 0.667969 0.664062 37.9776 0.664062 84.0013C0.664062 130.025 37.9737 167.335 83.9974 167.335ZM83.9974 42.3346C88.5998 42.3346 92.3307 46.0656 92.3307 50.668V92.3346C92.3307 96.937 88.5998 100.668 83.9974 100.668C79.395 100.668 75.6641 96.937 75.6641 92.3346V50.668C75.6641 46.0656 79.395 42.3346 83.9974 42.3346ZM92.3307 125.668C92.3307 130.27 88.5998 134.001 83.9974 134.001C79.395 134.001 75.6641 130.27 75.6641 125.668C75.6641 121.066 79.395 117.335 83.9974 117.335C88.5998 117.335 92.3307 121.066 92.3307 125.668Z" fill="#FDA52C"/>
</svg>
