<svg width="100" height="90" viewBox="0 0 100 90" fill="none" xmlns="http://www.w3.org/2000/svg">
<path d="M95 15H73.3333V8.33333C73.3276 3.73291 69.6004 0.00569662 65 0H35C30.3996 0.00569662 26.6724 3.73291 26.6667 8.33333V15H5C2.23877 15 0 17.2388 0 20V57.0996C0.0105794 59.2139 1.34277 61.0946 3.33333 61.805V85C3.33333 87.7612 5.5721 90 8.33333 90H91.6667C94.4279 90 96.6667 87.7612 96.6667 85V61.8066C98.6572 61.0954 99.9902 59.2139 100 57.0996V20C100 17.2388 97.7612 15 95 15ZM30 8.33333C30 5.5721 32.2388 3.33333 35 3.33333H65C67.7612 3.33333 70 5.5721 70 8.33333V15H66.6667V8.33333C66.6667 7.41292 65.9204 6.66667 65 6.66667H35C34.0796 6.66667 33.3333 7.41292 33.3333 8.33333V15H30V8.33333ZM63.3333 15H36.6667V10H63.3333V15ZM93.3333 85C93.3333 85.9204 92.5871 86.6667 91.6667 86.6667H8.33333C7.41292 86.6667 6.66667 85.9204 6.66667 85V62.3779L43.3333 67.4349V71.6667C43.3333 74.4279 45.5721 76.6667 48.3333 76.6667H51.6667C54.4279 76.6667 56.6667 74.4279 56.6667 71.6667V67.4349L93.3333 62.3779V85ZM53.3333 71.6667C53.3333 72.5871 52.5871 73.3333 51.6667 73.3333H48.3333C47.4129 73.3333 46.6667 72.5871 46.6667 71.6667V61.6667C46.6667 60.7463 47.4129 60 48.3333 60H51.6667C52.5871 60 53.3333 60.7463 53.3333 61.6667V71.6667ZM96.6667 57.0996C96.6675 57.9305 96.0563 58.6353 95.2336 58.7516L94.7713 58.8151L56.6667 64.0698V61.6667C56.6667 58.9054 54.4279 56.6667 51.6667 56.6667H48.3333C45.5721 56.6667 43.3333 58.9054 43.3333 61.6667V64.0698L4.76807 58.7516C3.94531 58.6361 3.33252 57.9313 3.33333 57.0996V20C3.33333 19.0796 4.07959 18.3333 5 18.3333H95C95.9204 18.3333 96.6667 19.0796 96.6667 20V57.0996Z" fill="#00A0A8"/>
</svg>
