<svg width="12" height="12" viewBox="0 0 12 12" fill="none" xmlns="http://www.w3.org/2000/svg">
<path d="M7.40858 5.99915L11.7044 1.71268C11.8925 1.52453 11.9982 1.26935 11.9982 1.00326C11.9982 0.737183 11.8925 0.481998 11.7044 0.29385C11.5163 0.105701 11.2612 0 10.9951 0C10.7291 0 10.4739 0.105701 10.2858 0.29385L5.99994 4.59031L1.71408 0.29385C1.52596 0.105701 1.27081 -1.98247e-09 1.00477 0C0.738722 1.98247e-09 0.483574 0.105701 0.295452 0.29385C0.10733 0.481998 0.00164392 0.737183 0.00164392 1.00326C0.00164392 1.26935 0.10733 1.52453 0.295452 1.71268L4.5913 5.99915L0.295452 10.2856C0.201814 10.3785 0.127492 10.489 0.0767719 10.6108C0.0260522 10.7325 -6.10352e-05 10.8631 -6.10352e-05 10.995C-6.10352e-05 11.1269 0.0260522 11.2575 0.0767719 11.3793C0.127492 11.501 0.201814 11.6116 0.295452 11.7044C0.388325 11.7981 0.498819 11.8724 0.620561 11.9232C0.742302 11.9739 0.872882 12 1.00477 12C1.13665 12 1.26723 11.9739 1.38897 11.9232C1.51071 11.8724 1.62121 11.7981 1.71408 11.7044L5.99994 7.40799L10.2858 11.7044C10.3787 11.7981 10.4892 11.8724 10.6109 11.9232C10.7326 11.9739 10.8632 12 10.9951 12C11.127 12 11.2576 11.9739 11.3793 11.9232C11.5011 11.8724 11.6116 11.7981 11.7044 11.7044C11.7981 11.6116 11.8724 11.501 11.9231 11.3793C11.9738 11.2575 11.9999 11.1269 11.9999 10.995C11.9999 10.8631 11.9738 10.7325 11.9231 10.6108C11.8724 10.489 11.7981 10.3785 11.7044 10.2856L7.40858 5.99915Z" fill="#6E8FB0"/>
</svg>
