<svg width="320" height="58" viewBox="0 0 320 58" fill="none" xmlns="http://www.w3.org/2000/svg">
<path d="M97.9962 38.781V44.9585H94.6787V40.9546H71.6846V13.9565H75.1165V38.781H91.1323V13.9565H94.6787V38.781H97.9962Z" fill="white"/>
<path d="M124.308 13.9565H127.854V40.9546H124.308V16.8165L108.407 40.9546H104.86V13.9565H108.407V37.7514L124.308 13.9565Z" fill="white"/>
<path d="M150.963 13.9565V16.9309H152.335C154.166 16.9309 155.767 17.2741 157.255 17.8461C158.627 18.4181 159.886 19.2189 160.801 20.2485C161.716 21.278 162.517 22.3076 162.975 23.566C163.432 24.8244 163.775 26.0828 163.775 27.3412C163.775 28.3708 163.547 29.4003 163.203 30.6587C162.86 31.8027 162.174 32.9467 161.144 33.9763C160.229 35.0059 158.971 35.8066 157.369 36.6074C155.767 37.2938 153.937 37.637 151.535 37.637H150.963V40.9546H147.416V37.637H146.959C144.671 37.637 142.726 37.2938 141.124 36.6074C139.523 35.921 138.264 35.0059 137.349 33.9763C136.434 32.9467 135.748 31.8027 135.405 30.6587C135.061 29.5147 134.833 28.3708 134.833 27.3412C134.833 26.0828 135.061 24.71 135.519 23.566C135.976 22.3076 136.777 21.278 137.692 20.2485C138.608 19.2189 139.866 18.5325 141.239 17.8461C142.612 17.2741 144.328 16.9309 146.158 16.9309H147.416V13.9565H150.963ZM147.531 18.5325H147.073C145.586 18.5325 144.213 18.7613 143.184 19.3333C142.154 19.9053 141.239 20.4773 140.552 21.3924C139.866 22.1932 139.408 23.1084 139.065 24.2524C138.722 25.282 138.608 26.3116 138.608 27.3412C138.608 28.5995 138.836 29.7435 139.294 30.7731C139.752 31.8027 140.324 32.7179 141.124 33.5187C141.925 34.3195 142.84 34.8915 143.87 35.3491C144.9 35.8066 146.158 36.0354 147.416 36.0354H147.645V18.5325H147.531ZM151.306 36.0354C152.564 36.0354 153.823 35.8066 154.852 35.3491C155.882 34.8915 156.797 34.3195 157.598 33.5187C158.399 32.7179 158.971 31.8027 159.428 30.7731C159.886 29.7435 160.115 28.5995 160.115 27.3412C160.115 26.3116 160 25.282 159.657 24.2524C159.314 23.2228 158.856 22.3076 158.17 21.3924C157.483 20.5917 156.568 19.9053 155.539 19.3333C154.509 18.7613 153.136 18.5325 151.649 18.5325H151.077V35.921H151.306V36.0354Z" fill="white"/>
<path d="M174.186 40.9546H170.639V13.9565H179.677C181.164 13.9565 182.422 14.1853 183.566 14.6429C184.71 15.1005 185.625 15.6725 186.312 16.3589C186.998 17.0453 187.57 17.9605 187.913 18.9901C188.257 20.0197 188.485 21.0492 188.485 22.0788C188.485 23.2228 188.257 24.2524 187.913 25.282C187.456 26.3116 186.884 27.1124 186.083 27.9132C185.282 28.7139 184.253 29.2859 183.109 29.7435C181.85 30.2011 180.477 30.4299 178.99 30.4299C178.075 30.4299 177.274 30.3155 176.473 30.2011C175.673 30.0867 174.986 29.9723 174.3 29.7435V40.9546H174.186ZM174.186 28.142C174.758 28.3707 175.33 28.4851 176.016 28.5995C176.702 28.7139 177.389 28.7139 178.189 28.7139C179.333 28.7139 180.363 28.4851 181.164 28.142C181.965 27.7988 182.651 27.2268 183.223 26.6548C183.795 26.0828 184.138 25.3964 184.367 24.5956C184.596 23.7948 184.71 23.1084 184.71 22.3076C184.71 21.5068 184.596 20.7061 184.253 20.0197C184.024 19.2189 183.566 18.5325 182.994 17.8461C182.422 17.2741 181.736 16.7021 180.935 16.3589C180.134 16.0157 179.219 15.7869 178.075 15.7869H174.186V28.142Z" fill="white"/>
<path d="M193.519 22.7654C194.091 21.1639 194.891 19.5623 196.15 18.1895C197.294 16.8167 198.781 15.6727 200.611 14.7575C202.442 13.8424 204.615 13.3848 207.132 13.3848C209.649 13.3848 211.937 13.8424 213.767 14.7575C215.597 15.6727 217.199 16.8167 218.457 18.1895C219.716 19.5623 220.631 21.0495 221.203 22.7654C221.775 24.367 222.118 25.9686 222.118 27.3414C222.118 28.2566 222.004 29.2861 221.661 30.3157C221.432 31.3453 220.974 32.3749 220.517 33.4045C219.945 34.4341 219.373 35.4637 218.457 36.3788C217.542 37.294 216.627 38.0948 215.597 38.8956C214.453 39.582 213.195 40.154 211.822 40.6116C210.45 41.0692 208.848 41.298 207.132 41.298C204.615 41.298 202.442 40.8404 200.611 39.9252C198.781 39.01 197.294 37.866 196.15 36.4933C195.006 35.1205 194.091 33.6333 193.519 31.9173C192.947 30.3157 192.718 28.7142 192.718 27.3414C192.718 25.9686 192.947 24.367 193.519 22.7654ZM197.294 32.3749C197.866 33.8621 198.552 35.1205 199.582 36.2645C200.497 37.294 201.641 38.2092 203.014 38.7812C204.272 39.3532 205.759 39.6964 207.246 39.6964C208.734 39.6964 210.221 39.3532 211.594 38.7812C212.966 38.2092 214.11 37.294 215.14 36.2645C216.169 35.2349 216.97 33.8621 217.542 32.3749C218.114 30.8877 218.457 29.1718 218.457 27.4558C218.457 25.6254 218.114 24.0238 217.542 22.5366C216.97 21.0495 216.169 19.7911 215.14 18.6471C214.11 17.6175 212.966 16.7023 211.594 16.1303C210.221 15.5583 208.848 15.2151 207.246 15.2151C205.759 15.2151 204.272 15.5583 203.014 16.1303C201.755 16.7023 200.611 17.6175 199.582 18.6471C198.666 19.6767 197.866 21.0495 197.294 22.5366C196.722 24.0238 196.493 25.7398 196.493 27.4558C196.493 29.2861 196.722 30.8877 197.294 32.3749Z" fill="white"/>
<path d="M244.311 37.065H244.54L257.01 13.9565H259.641V40.9546H256.094V19.1045H255.98L243.854 41.4122H243.167L231.27 18.9901H231.041V40.9546H229.325V13.9565H231.956L244.311 37.065Z" fill="white"/>
<path d="M286.296 13.9565V16.1301H272.339V25.7396H284.351V27.57H272.339V38.781H286.296V40.9546H268.907V13.9565H286.296Z" fill="white"/>
<path d="M315.582 39.1242H319.357V44.9585H316.039V40.9546H292.473V44.9585H289.156V39.1242H292.817L302.426 13.9565H304.828L315.582 39.1242ZM302.884 18.1893H302.769L294.647 39.1242H311.807L302.884 18.1893Z" fill="white"/>
<path d="M46.4025 12.2407H12.8838V45.7595H46.4025V12.2407Z" fill="white"/>
<path d="M58.5287 58H0.643066V0H58.5287V58ZM3.38863 55.14H55.6687V2.85996H3.38863V55.14Z" fill="white"/>
</svg>
