<svg width="14" height="10" viewBox="0 0 14 10" fill="none" xmlns="http://www.w3.org/2000/svg">
<path d="M3.41421 6H13C13.5523 6 14 5.55228 14 5C14 4.44772 13.5523 4 13 4L3.41421 4L5.70711 1.70711C6.09763 1.31658 6.09763 0.683418 5.70711 0.292894C5.31658 -0.0976312 4.68342 -0.0976312 4.29289 0.292894L0.293523 4.29226L0.286395 4.29945C0.193742 4.3938 0.12357 4.50195 0.0758791 4.61722C0.0273466 4.73425 0.00039959 4.8625 4.76837e-06 4.997L0 5L4.76837e-06 5.003C0.000353813 5.12184 0.0214329 5.2358 0.0598154 5.34146C0.0605822 5.34357 0.0613556 5.34568 0.0621367 5.34779C0.0661497 5.35861 0.0703459 5.36934 0.0747194 5.37998L0.0758791 5.38278C0.123499 5.49788 0.193531 5.60588 0.285978 5.70012L0.293523 5.70774L4.29289 9.70711C4.68342 10.0976 5.31658 10.0976 5.70711 9.70711C6.09763 9.31658 6.09763 8.68342 5.70711 8.29289L3.41421 6Z" fill="#6C8BC9"/>
</svg>

