<svg width="97" height="97" viewBox="0 0 97 97" fill="none" xmlns="http://www.w3.org/2000/svg">
<g clip-path="url(#clip0_1183_1926)">
<path d="M29.1004 9.70117H8.08398V12.9345H29.1004V9.70117Z" fill="#00A0A8"/>
<path d="M29.1004 16.1675H8.08398V19.4008H29.1004V16.1675Z" fill="#00A0A8"/>
<path d="M22.6338 22.6343H8.08398V25.8676H22.6338V22.6343Z" fill="#00A0A8"/>
<path d="M22.6338 29.1011H8.08398V32.3344H22.6338V29.1011Z" fill="#00A0A8"/>
<path d="M96.9993 93.7666H0.000488281V96.9999H96.9993V93.7666Z" fill="#00A0A8"/>
<path d="M93.5962 13.8285L87.1296 0.895329C86.7309 0.0963018 85.7603 -0.22824 84.9613 0.170466C84.9608 0.170668 84.9604 0.17087 84.96 0.171072L72.0269 6.63766C71.2278 7.03677 70.9035 8.00817 71.3026 8.8072C71.7017 9.60623 72.6731 9.93056 73.4721 9.53146L82.839 4.85126L80.2831 12.1488C69.0488 44.1439 40.113 66.5902 6.32959 69.5171L6.60442 72.7504C41.6608 69.7135 71.6853 46.4183 83.3369 13.2158L85.9462 5.75982L90.7024 15.2738C91.1015 16.0728 92.0729 16.3972 92.8719 15.998C93.6711 15.5989 93.9953 14.6277 93.5962 13.8285Z" fill="#00A0A8"/>
<path d="M19.4005 77.6001H8.08393C7.19114 77.6001 6.46729 78.324 6.46729 79.2167V88.9166C6.46729 89.8094 7.19114 90.5333 8.08393 90.5333H19.4005C20.2932 90.5333 21.0171 89.8094 21.0171 88.9166V79.2167C21.0171 78.324 20.2932 77.6001 19.4005 77.6001ZM17.7838 87.3H9.70058V80.8334H17.7838V87.3Z" fill="#00A0A8"/>
<path d="M37.1837 72.7505H25.8671C24.9743 72.7505 24.2505 73.4743 24.2505 74.3671V88.917C24.2505 89.8097 24.9743 90.5336 25.8671 90.5336H37.1837C38.0765 90.5336 38.8003 89.8097 38.8003 88.917V74.3671C38.8003 73.4743 38.0765 72.7505 37.1837 72.7505ZM35.567 87.3003H27.4838V75.9838H35.567V87.3003Z" fill="#00A0A8"/>
<path d="M54.9664 64.667H43.6498C42.7571 64.667 42.0332 65.3908 42.0332 66.2836V88.9167C42.0332 89.8095 42.7571 90.5333 43.6498 90.5333H54.9664C55.8592 90.5333 56.583 89.8095 56.583 88.9167V66.2836C56.583 65.3908 55.8592 64.667 54.9664 64.667ZM53.3497 87.3H45.2665V67.9003H53.3497V87.3Z" fill="#00A0A8"/>
<path d="M72.7496 53.3506H61.4331C60.5403 53.3506 59.8164 54.0744 59.8164 54.9672V88.9168C59.8164 89.8096 60.5403 90.5335 61.4331 90.5335H72.7496C73.6424 90.5335 74.3662 89.8096 74.3662 88.9168V54.9672C74.3662 54.0744 73.6424 53.3506 72.7496 53.3506ZM71.1329 87.3002H63.0497V56.5839H71.1329V87.3002Z" fill="#00A0A8"/>
<path d="M90.5328 30.7173H79.2163C78.3235 30.7173 77.5996 31.4411 77.5996 32.3339V88.9166C77.5996 89.8093 78.3235 90.5332 79.2163 90.5332H90.5328C91.4256 90.5332 92.1494 89.8093 92.1494 88.9166V32.3339C92.1494 31.4411 91.4256 30.7173 90.5328 30.7173ZM88.9161 87.2999H80.8329V33.9506H88.9161V87.2999Z" fill="#00A0A8"/>
</g>
<defs>
<clipPath id="clip0_1183_1926">
<rect width="97" height="97" fill="white"/>
</clipPath>
</defs>
</svg>
