<svg width="101" height="101" viewBox="0 0 101 101" fill="none" xmlns="http://www.w3.org/2000/svg">
<g clip-path="url(#clip0_1183_1961)">
<path d="M60.9799 31.3118C60.0913 30.6815 58.8599 30.8902 58.2295 31.7789L58.1912 31.8327C57.5607 32.7212 57.7698 33.9526 58.6583 34.583C59.0049 34.8288 59.4034 34.9472 59.7983 34.9472C60.416 34.9472 61.0241 34.658 61.4088 34.1159L61.4471 34.062C62.0775 33.1736 61.8684 31.9422 60.9799 31.3118Z" fill="#00A0A8"/>
<path d="M56.486 36.9023C55.7952 36.0598 54.5522 35.9373 53.7099 36.6283C50.9692 38.8764 47.855 40.4766 44.4536 41.3848C43.401 41.6659 42.7754 42.7469 43.0565 43.7995C43.2921 44.6817 44.0894 45.2638 44.9611 45.2638C45.1296 45.2638 45.3008 45.2421 45.4713 45.1964C49.4199 44.142 53.0334 42.2855 56.2118 39.6784C57.0543 38.9876 57.177 37.7445 56.486 36.9023Z" fill="#00A0A8"/>
<path d="M95.082 44.6747C91.8189 44.6747 89.1641 47.3295 89.1641 50.5925V51.579C89.1641 59.8518 83.1406 66.7397 75.2499 68.0987C76.2804 66.5787 76.8833 64.7463 76.8833 62.7756V61.4054C76.8833 56.1621 72.6174 51.8964 67.3741 51.8964C62.1308 51.8964 57.8651 56.1621 57.8651 61.4054V62.7756C57.8651 64.6962 58.4392 66.4842 59.4221 67.9809C51.8414 66.374 46.1349 59.6314 46.1349 51.579V50.5925C46.1349 47.3295 43.4801 44.6747 40.2169 44.6747C36.9538 44.6747 34.299 47.3295 34.299 50.5925V51.579C34.299 55.5829 35.1137 59.4551 36.6855 63.0325H23.6231H23.2629V43.1663C23.2629 42.2857 22.6794 41.5116 21.8328 41.2697C11.301 38.2577 3.94531 28.5067 3.94531 17.5566V16.5703C3.94531 15.4826 4.83025 14.5977 5.91797 14.5977C7.00569 14.5977 7.89062 15.4826 7.89062 16.5703V17.5566C7.89062 28.9777 17.1824 38.2695 28.6035 38.2695H38.0973C49.5184 38.2695 58.8102 28.9777 58.8102 17.5566V16.5703C58.8102 15.4826 59.6951 14.5977 60.7829 14.5977C61.8706 14.5977 62.7555 15.4826 62.7555 16.5703V17.5566C62.7555 20.5888 62.2093 23.5508 61.1318 26.3596C60.7416 27.3767 61.25 28.5177 62.2673 28.9079C63.284 29.2983 64.4254 28.7895 64.8156 27.7724C66.0666 24.5108 66.7008 21.0737 66.7008 17.5566V16.5703C66.7008 13.3071 64.046 10.6523 60.7829 10.6523C57.5197 10.6523 54.8649 13.3071 54.8649 16.5703V17.5566C54.8649 25.8292 48.8414 32.7171 40.951 34.0763C41.9815 32.5563 42.5841 30.7241 42.5841 28.7536V27.3834C42.5841 22.1401 38.3183 17.8742 33.0749 17.8742C27.8316 17.8742 23.5659 22.1401 23.5659 27.3834V28.7536C23.5659 30.674 24.14 32.462 25.123 33.9585C17.5422 32.3516 11.8359 25.609 11.8359 17.5566V16.5703C11.8359 13.3071 9.18114 10.6523 5.91797 10.6523C2.6548 10.6523 0 13.3071 0 16.5703V17.5566C0 23.8901 2.03618 29.8952 5.88818 34.9225C9.30956 39.3876 14.037 42.7885 19.3178 44.6118V65.0049C19.3178 66.0942 20.201 66.9776 21.2905 66.9776H21.6507V99.0273C21.6507 100.117 22.5338 101 23.6233 101C24.7128 101 25.596 100.117 25.596 99.0273V66.9776H38.8049C39.2361 67.6481 39.6967 68.3044 40.1873 68.9447C40.3179 69.1152 40.4539 69.2809 40.5882 69.4482V99.0273C40.5882 100.117 41.4713 101 42.5608 101C43.6503 101 44.5335 100.117 44.5335 99.0273V73.4795C47.2212 75.732 50.3106 77.4922 53.617 78.634V99.0273C53.617 100.117 54.5002 101 55.5896 101C56.6791 101 57.5623 100.117 57.5623 99.0273V77.1885C57.5623 76.3079 56.9788 75.5338 56.1321 75.292C45.6001 72.2799 38.2445 62.5291 38.2445 51.579V50.5925C38.2445 49.5048 39.1294 48.6201 40.2171 48.6201C41.3049 48.6201 42.1898 49.5048 42.1898 50.5925V51.579C42.1898 63.0001 51.4816 72.2919 62.9027 72.2919H72.3965C83.8176 72.2919 93.1094 63.0001 93.1094 51.579V50.5925C93.1094 49.5048 93.9943 48.6201 95.082 48.6201C96.1698 48.6201 97.0547 49.5048 97.0547 50.5925V51.579C97.0547 62.7313 89.5286 72.5296 78.7528 75.407C77.8895 75.6374 77.2891 76.4193 77.2891 77.3127V91.5969C77.2891 92.6862 78.1722 93.5696 79.2617 93.5696C80.3512 93.5696 81.2344 92.6862 81.2344 91.5969V78.7859C92.9468 74.9809 101 64.0046 101 51.579V50.5925C101 47.3295 98.3452 44.6747 95.082 44.6747ZM27.5113 27.3832C27.5113 24.3152 30.0071 21.8194 33.0749 21.8194C36.1428 21.8194 38.6388 24.3152 38.6388 27.3832V28.7534C38.6388 31.8213 36.143 34.3171 33.0749 34.3171C30.0071 34.3171 27.5113 31.8213 27.5113 28.7534V27.3832ZM72.938 62.7756C72.938 65.8435 70.4422 68.3393 67.3741 68.3393C64.3062 68.3393 61.8104 65.8435 61.8104 62.7756V61.4054C61.8104 58.3376 64.3062 55.8418 67.3741 55.8418C70.442 55.8418 72.938 58.3376 72.938 61.4054V62.7756Z" fill="#00A0A8"/>
<path d="M80.6559 97.6327C80.289 97.2656 79.78 97.0547 79.2612 97.0547C78.7424 97.0547 78.2335 97.2656 77.8666 97.6327C77.4997 97.9996 77.2886 98.5085 77.2886 99.0273C77.2886 99.5462 77.4997 100.055 77.8666 100.422C78.2335 100.789 78.7424 101 79.2612 101C79.78 101 80.289 100.789 80.6559 100.422C81.0228 100.055 81.2339 99.5462 81.2339 99.0273C81.2339 98.5085 81.0228 97.9996 80.6559 97.6327Z" fill="#00A0A8"/>
<path d="M33.0747 73.7773C31.9852 73.7773 31.1021 74.6607 31.1021 75.75V99.0273C31.1021 100.117 31.9852 101 33.0747 101C34.1642 101 35.0474 100.117 35.0474 99.0273V75.75C35.0474 74.6607 34.1642 73.7773 33.0747 73.7773Z" fill="#00A0A8"/>
<path d="M91.9258 16.1758C90.8363 16.1758 89.9531 17.0591 89.9531 18.1484V20.6004C89.9531 21.6898 90.8363 22.5731 91.9258 22.5731C93.0153 22.5731 93.8984 21.6898 93.8984 20.6004V18.1484C93.8984 17.0591 93.0153 16.1758 91.9258 16.1758Z" fill="#00A0A8"/>
<path d="M91.9258 27.9268C90.8363 27.9268 89.9531 28.8101 89.9531 29.8994V32.3514C89.9531 33.4407 90.8363 34.3241 91.9258 34.3241C93.0153 34.3241 93.8984 33.4407 93.8984 32.3514V29.8994C93.8984 28.8101 93.0153 27.9268 91.9258 27.9268Z" fill="#00A0A8"/>
<path d="M99.0272 23.2773H96.5752C95.4857 23.2773 94.6025 24.1607 94.6025 25.25C94.6025 26.3393 95.4857 27.2227 96.5752 27.2227H99.0272C100.117 27.2227 101 26.3393 101 25.25C101 24.1607 100.117 23.2773 99.0272 23.2773Z" fill="#00A0A8"/>
<path d="M87.2762 23.2773H84.8242C83.7347 23.2773 82.8516 24.1607 82.8516 25.25C82.8516 26.3393 83.7347 27.2227 84.8242 27.2227H87.2762C88.3657 27.2227 89.2489 26.3393 89.2489 25.25C89.2489 24.1607 88.3657 23.2773 87.2762 23.2773Z" fill="#00A0A8"/>
<path d="M43.3735 0C42.284 0 41.4009 0.883355 41.4009 1.97266V4.42467C41.4009 5.51397 42.284 6.39732 43.3735 6.39732C44.463 6.39732 45.3462 5.51397 45.3462 4.42467V1.97266C45.3462 0.883355 44.463 0 43.3735 0Z" fill="#00A0A8"/>
<path d="M43.3735 11.751C42.284 11.751 41.4009 12.6343 41.4009 13.7236V16.1756C41.4009 17.2649 42.284 18.1483 43.3735 18.1483C44.463 18.1483 45.3462 17.2649 45.3462 16.1756V13.7236C45.3462 12.6343 44.463 11.751 43.3735 11.751Z" fill="#00A0A8"/>
<path d="M50.475 7.10156H48.0229C46.9335 7.10156 46.0503 7.98492 46.0503 9.07422C46.0503 10.1635 46.9335 11.0469 48.0229 11.0469H50.475C51.5645 11.0469 52.4476 10.1635 52.4476 9.07422C52.4476 7.98492 51.5645 7.10156 50.475 7.10156Z" fill="#00A0A8"/>
<path d="M38.724 7.10156H36.272C35.1825 7.10156 34.2993 7.98492 34.2993 9.07422C34.2993 10.1635 35.1825 11.0469 36.272 11.0469H38.724C39.8135 11.0469 40.6966 10.1635 40.6966 9.07422C40.6966 7.98492 39.8135 7.10156 38.724 7.10156Z" fill="#00A0A8"/>
</g>
<defs>
<clipPath id="clip0_1183_1961">
<rect width="101" height="101" fill="white"/>
</clipPath>
</defs>
</svg>
