<svg xmlns="http://www.w3.org/2000/svg" width="24" height="24" viewBox="0 0 24 24" fill="none">
    <path fill-rule="evenodd" clip-rule="evenodd" d="M17 1.94824C17 1.53403 16.6642 1.19824 16.25 1.19824C15.8358 1.19824 15.5 1.53403 15.5 1.94824V3.00023L8.5 3.00023V1.94824C8.5 1.53403 8.16421 1.19824 7.75 1.19824C7.33579 1.19824 7 1.53403 7 1.94824V3.00023H6C4.34315 3.00023 3 4.34337 3 6.00023V18.0002C3 19.6571 4.34315 21.0002 6 21.0002H18C19.6569 21.0002 21 19.6571 21 18.0002V6.00023C21 4.34337 19.6569 3.00023 18 3.00023H17V1.94824ZM7 5.44824V4.50023H6C5.17157 4.50023 4.5 5.1718 4.5 6.00023V8.01584L19.5 8.01584V6.00023C19.5 5.1718 18.8284 4.50023 18 4.50023H17V5.44824C17 5.86246 16.6642 6.19824 16.25 6.19824C15.8358 6.19824 15.5 5.86246 15.5 5.44824V4.50023L8.5 4.50023V5.44824C8.5 5.86246 8.16421 6.19824 7.75 6.19824C7.33579 6.19824 7 5.86246 7 5.44824ZM19.5 9.51584L4.5 9.51584L4.5 18.0002C4.5 18.8287 5.17157 19.5002 6 19.5002H18C18.8284 19.5002 19.5 18.8287 19.5 18.0002V9.51584Z" fill="#0D4CD3"/>
</svg>