<svg width="20" height="20" viewBox="0 0 20 20" fill="none" xmlns="http://www.w3.org/2000/svg">
<path fillRule="evenodd" clipRule="evenodd" d="M10 0C15.5228 0 20 4.47715 20 10C20 15.5228 15.5228 20 10 20C4.47715 20 0 15.5228 0 10C0 4.47715 4.47715 0 10 0ZM13.7032 6.30464C14.0937 6.69515 14.0938 7.32831 13.7032 7.71885L11.4142 9.9999L13.7033 12.2891C14.0938 12.6796 14.0938 13.3128 13.7032 13.7033C13.3127 14.0938 12.6795 14.0938 12.289 13.7032L10.0001 11.4142L7.71908 13.7032C7.32857 14.0937 6.6954 14.0937 6.30486 13.7032C5.91432 13.3127 5.9143 12.6796 6.30481 12.289L8.58593 9.9999L6.30459 7.7188C5.91408 7.32826 5.9141 6.6951 6.30464 6.30459C6.69518 5.91408 7.32834 5.9141 7.71885 6.30464L10.0001 8.58562L12.289 6.30469C12.6795 5.91415 13.3127 5.91413 13.7032 6.30464Z" fill="white"/>
</svg>
