<svg xmlns="http://www.w3.org/2000/svg" width="25" height="24" viewBox="0 0 25 24" fill="none">
    <path d="M6.79537 10.7195C6.40154 10.3261 6.40154 9.68836 6.79537 9.29501C7.18919 8.90166 7.8277 8.90166 8.22152 9.29501L13.2131 14.2805C13.6069 14.6739 13.6069 15.3116 13.2131 15.705C12.8192 16.0983 12.1807 16.0983 11.7869 15.705L6.79537 10.7195Z" fill="#0D4CD3"/>
    <path d="M16.7785 9.29516C17.1723 8.90181 17.8108 8.90181 18.2046 9.29516C18.5985 9.68851 18.5985 10.3263 18.2046 10.7196L13.2131 15.705C12.8192 16.0983 12.1807 16.0983 11.7869 15.705C11.3931 15.3116 11.3931 14.674 11.7869 14.2807L16.7785 9.29516Z" fill="#0D4CD3"/>
</svg>