<svg width="24" height="24" viewBox="0 0 24 24" fill="none" xmlns="http://www.w3.org/2000/svg">
<path fillRule="evenodd" clipRule="evenodd" d="M12 22C17.5228 22 22 17.5228 22 12C22 6.47715 17.5228 2 12 2C6.47715 2 2 6.47715 2 12C2 17.5228 6.47715 22 12 22ZM15.7657 9.32414C16.1562 9.71467 16.1562 10.3478 15.7657 10.7384L11.7657 14.7384C11.3752 15.1289 10.742 15.1289 10.3515 14.7384L8.35149 12.7384C7.96096 12.3478 7.96096 11.7147 8.35149 11.3241C8.74201 10.9336 9.37518 10.9336 9.7657 11.3241L11.0586 12.617L14.3515 9.32414C14.742 8.93362 15.3752 8.93362 15.7657 9.32414Z" fill="#1D826E"/>
</svg>
