<svg width="17" height="20" viewBox="0 0 17 20" fill="none" xmlns="http://www.w3.org/2000/svg">
<path d="M8.79289 0.292893C9.18342 -0.0976311 9.81658 -0.0976311 10.2071 0.292893L13.2071 3.29289C13.5976 3.68342 13.5976 4.31658 13.2071 4.70711L10.2071 7.70711C9.81658 8.09763 9.18342 8.09763 8.79289 7.70711C8.40237 7.31658 8.40237 6.68342 8.79289 6.29289L10.0858 5H8.5C4.95228 5 2 7.95228 2 11.5C2 15.0477 4.95228 18 8.5 18C12.0477 18 15 15.0477 15 11.5C15 10.9477 15.4477 10.5 16 10.5C16.5523 10.5 17 10.9477 17 11.5C17 16.1523 13.1523 20 8.5 20C3.84772 20 0 16.1523 0 11.5C0 6.84772 3.84772 3 8.5 3H10.0858L8.79289 1.70711C8.40237 1.31658 8.40237 0.683417 8.79289 0.292893Z" fill="#6C8BC9"/>
</svg>
