<svg width="765" height="711" viewBox="0 0 765 711" fill="none" xmlns="http://www.w3.org/2000/svg">
<path d="M47.1271 531.997C-16.0577 421.995 -15.6919 286.482 48.1329 176.754L355.279 355.153L47.1271 531.997Z" fill="#F2F2F2"/>
<path d="M48.1328 176.754C111.958 67.1176 229.366 -0.273485 356.284 0.00083429L355.279 355.244L48.1328 176.754Z" fill="#E6E6E6"/>
<path d="M356.193 0C483.111 0.274319 600.246 68.3054 663.43 178.399L355.279 355.243L356.193 0Z" fill="#F2F2F2"/>
<path d="M713.598 165.408C781.302 283.364 780.91 428.457 712.717 546.02L383.508 354.783L713.598 165.408Z" fill="url(#paint0_linear_1058_1596)"/>
<path d="M662.424 533.643C598.6 643.37 481.191 710.67 354.364 710.395L355.37 355.152L662.424 533.643Z" fill="#F2F2F2"/>
<path d="M354.364 710.395C227.446 710.121 110.312 642.09 47.127 531.997L355.37 355.152L354.364 710.395Z" fill="#E6E6E6"/>
<path d="M454.948 161.482H452.845C452.114 161.482 451.565 162.031 451.565 162.763C451.565 163.494 452.114 164.043 452.845 164.043H454.948C455.68 164.043 456.228 163.494 456.228 162.763C456.228 162.031 455.588 161.482 454.948 161.482Z" fill="black"/>
<path d="M454.948 156.361H452.845C452.114 156.361 451.565 156.91 451.565 157.641C451.565 158.373 452.114 158.922 452.845 158.922H454.948C455.68 158.922 456.228 158.373 456.228 157.641C456.228 156.91 455.588 156.361 454.948 156.361Z" fill="black"/>
<path d="M476.071 112.562C468.207 112.562 460.709 115.671 455.131 121.249C449.553 126.827 446.444 134.325 446.444 142.189V178.125C446.444 179.222 447.359 180.045 448.365 180.045H456.503C456.228 181.691 456.046 182.88 456.046 183.52V188.457C456.046 189.646 456.96 190.561 458.149 190.561H460.892V194.218C460.892 195.407 461.806 196.321 462.995 196.321H489.055C490.244 196.321 491.158 195.407 491.158 194.218V190.561H493.902C495.09 190.561 496.005 189.646 496.005 188.457V183.52C496.005 182.88 495.822 181.599 495.547 180.045H504.417C505.514 180.045 506.429 179.131 506.429 178.125V163.494C506.429 162.763 505.88 162.214 505.149 162.214C504.417 162.214 503.868 162.763 503.868 163.494V177.576H495.182C493.902 170.992 491.707 161.574 491.341 159.837V158.008C495.456 153.985 498.108 148.407 498.108 142.189C498.108 134.599 494.176 127.833 488.232 123.901L490.884 119.329C498.748 124.267 503.96 132.954 503.96 142.829V157.551C503.96 158.282 504.509 158.831 505.24 158.831C505.972 158.831 506.52 158.282 506.52 157.551V142.829C506.52 134.782 503.32 127.193 497.651 121.432C491.707 115.763 484.118 112.562 476.071 112.562ZM474.791 115.214V120.426C471.773 120.609 468.847 121.432 466.195 122.712L463.635 118.232C467.018 116.403 470.767 115.397 474.791 115.214ZM456.96 177.576H448.913V142.189C448.913 132.679 453.851 124.267 461.349 119.42L463.909 123.901C457.966 127.833 454.034 134.508 454.034 142.189C454.034 148.407 456.594 153.985 460.8 158.008V159.837C460.526 161.574 458.24 170.992 456.96 177.576ZM488.598 193.944H463.452V190.743H488.598V193.944ZM493.353 182.331H478.357C477.625 182.331 477.077 182.88 477.077 183.611C477.077 184.343 477.625 184.891 478.357 184.891H493.353V188.092H458.514V184.891H472.413C473.145 184.891 473.693 184.343 473.693 183.611C473.693 182.88 473.145 182.331 472.413 182.331H458.606C458.697 181.874 462.721 162.946 463.086 161.208H488.781C489.238 162.946 493.353 181.874 493.353 182.331ZM486.495 150.419C486.221 150.419 486.038 150.327 485.763 150.327H466.287C466.012 150.327 465.83 150.327 465.555 150.419C463.726 148.041 462.721 145.206 462.721 142.28C462.721 134.965 468.664 129.022 475.979 129.022C483.295 129.022 489.238 134.965 489.238 142.28C489.33 145.206 488.324 148.041 486.495 150.419ZM488.598 155.813V156.911V158.648H463.361V155.813C463.361 154.259 464.641 152.979 466.195 152.979H485.672C487.318 152.887 488.598 154.168 488.598 155.813ZM495.365 142.189C495.365 146.852 493.719 151.059 490.975 154.442C490.61 153.162 489.878 152.156 488.872 151.333C490.793 148.681 491.798 145.481 491.798 142.189C491.798 133.502 484.666 126.37 475.979 126.37C467.293 126.37 460.16 133.502 460.16 142.189C460.16 145.481 461.166 148.681 463.086 151.333C462.081 152.064 461.349 153.162 460.983 154.442C458.24 151.059 456.594 146.852 456.594 142.189C456.594 131.491 465.281 122.895 475.888 122.895C486.678 122.895 495.365 131.582 495.365 142.189ZM485.855 122.621C483.295 121.341 480.368 120.518 477.26 120.335V115.214C481.283 115.397 485.032 116.403 488.415 118.14L485.855 122.621Z" fill="black"/>
<path d="M548.829 401.48H660.078C661.162 401.48 662.004 400.637 662.004 399.554V394.858C662.004 388.236 656.707 382.939 650.085 382.939H619.624V374.27C619.624 374.029 619.624 373.668 619.624 373.427C637.925 367.768 648.279 348.264 642.62 329.963C640.212 322.017 634.915 315.154 627.811 310.699L630.941 307.93C631.784 307.207 631.905 305.883 631.182 304.92L629.617 302.993L634.794 298.539L635.396 299.141C635.757 299.502 636.239 299.743 636.721 299.863H636.841C637.323 299.863 637.804 299.743 638.165 299.381L642.741 295.529C643.583 294.806 643.704 293.602 642.981 292.76L633.831 282.164C633.109 281.322 631.905 281.201 631.062 281.924L626.487 285.776C625.644 286.499 625.524 287.703 626.246 288.546L626.727 289.027L621.55 293.482L620.226 291.917C619.504 291.074 618.179 290.953 617.216 291.676L589.645 315.515L589.043 314.793C588.32 313.95 587.116 313.829 586.273 314.552L580.855 319.127C580.013 319.849 579.892 321.053 580.615 321.896L595.664 339.474C596.026 339.836 596.507 340.076 596.989 340.197H597.109C597.591 340.197 598.072 340.076 598.434 339.715L603.852 335.14C604.694 334.418 604.815 333.214 604.092 332.371L603.49 331.648L619.383 318.043L620.106 318.405C628.052 322.739 632.988 331.046 632.988 340.197C632.988 341.16 632.988 342.123 632.868 343.086C629.858 342.484 626.968 344.531 626.366 347.541C625.885 349.949 627.089 352.357 629.135 353.441C626.005 358.377 621.189 362.109 615.53 363.795C612.641 360.665 608.668 358.979 604.454 358.979C604.333 358.979 604.333 358.979 604.213 358.979H604.092L561.832 359.099C560.628 359.099 559.786 360.063 559.786 361.146C559.786 361.267 559.785 361.507 559.906 361.628L562.675 372.584C562.916 373.547 563.759 374.149 564.722 374.149H589.283V382.818H558.822C552.2 382.818 546.903 388.116 546.903 394.738V399.433C546.782 400.637 547.746 401.48 548.829 401.48ZM632.145 284.813L639.971 293.963L636.841 296.612L629.015 287.462L632.145 284.813ZM628.533 291.315L632.868 296.371L627.691 300.826L623.356 295.769L628.533 291.315ZM597.23 336.826L583.504 320.813L587.357 317.441L601.082 333.454L597.23 336.826ZM618.3 314.913C618.179 315.033 618.059 315.033 618.059 315.154L601.564 329.361L591.571 317.682L618.54 294.565L628.533 306.244L618.3 314.913ZM631.784 345.856C632.266 345.856 632.747 345.976 633.109 346.217C633.109 346.217 633.229 346.217 633.229 346.337C634.433 347.18 634.794 348.866 633.951 350.07C633.47 350.792 632.627 351.274 631.784 351.274H631.664C631.543 351.274 631.543 351.274 631.423 351.274C629.978 351.033 629.015 349.708 629.256 348.264C629.376 346.819 630.46 345.856 631.784 345.856ZM632.145 354.043C635.276 353.802 637.563 351.153 637.323 348.143C637.202 346.698 636.6 345.374 635.517 344.411C635.757 342.966 635.878 341.521 635.878 340.076C635.878 329.963 630.46 320.692 621.671 315.876L625.403 312.625C640.573 321.535 645.751 341.04 636.841 356.21C632.868 362.952 626.607 368.009 619.142 370.417C618.781 368.972 618.179 367.527 617.336 366.203C623.597 364.036 628.774 359.701 632.145 354.043ZM604.454 361.869C608.066 361.869 611.557 363.554 613.965 366.323L614.086 366.444C615.892 368.611 616.855 371.38 616.855 374.149V382.818H592.053V374.149C592.053 367.407 597.591 361.869 604.454 361.869ZM565.203 371.26L562.795 361.989L595.303 361.869C592.173 364.156 590.126 367.407 589.404 371.139L565.203 371.26ZM549.792 394.738C549.792 389.801 553.766 385.708 558.822 385.708H590.608H590.728H590.849H618.179H618.3H618.42H650.205C655.142 385.708 659.235 389.681 659.235 394.738V398.47H549.913V394.738H549.792Z" fill="white"/>
<path d="M604.333 378.965C607.825 378.965 610.594 376.196 610.594 372.704C610.594 369.213 607.825 366.443 604.333 366.443C600.842 366.443 598.073 369.213 598.073 372.704C598.073 376.196 600.842 378.965 604.333 378.965ZM604.333 369.333C606.139 369.333 607.704 370.778 607.704 372.704C607.704 374.51 606.26 376.075 604.333 376.075C602.527 376.075 600.962 374.631 600.962 372.704C600.962 370.898 602.407 369.333 604.333 369.333Z" fill="white"/>
<path d="M31.4908 278.068C31.8566 276.514 32.4967 275.234 33.4111 274.045C34.3254 272.948 35.4227 272.033 36.7029 271.393C37.983 270.753 39.3546 270.296 40.8177 270.113C42.2807 269.93 43.6523 270.021 45.1153 270.387C46.5784 270.753 47.95 271.302 49.1387 272.216C50.3274 273.039 51.3332 274.045 52.1562 275.234C52.9791 276.422 53.5278 277.702 53.8021 279.074C54.0764 280.446 54.0764 281.909 53.7107 283.372C53.3449 284.926 52.7048 286.206 51.699 287.304C50.7846 288.401 49.6873 289.315 48.3157 289.955C47.0356 290.595 45.664 291.053 44.2009 291.235C42.7379 291.418 41.3663 291.327 39.9947 290.961C38.5317 290.595 37.1601 290.047 35.9714 289.224C34.7826 288.401 33.7768 287.395 32.9539 286.206C32.1309 285.018 31.5823 283.737 31.3079 282.366C31.0336 280.994 31.1251 279.531 31.4908 278.068ZM44.3838 273.222C43.2865 272.948 42.1893 272.856 41.0005 272.948C39.9033 273.039 38.806 273.313 37.8916 273.771C36.8858 274.228 36.0628 274.868 35.4227 275.691C34.6912 276.514 34.234 277.52 33.9597 278.617C33.6854 279.806 33.6854 280.903 33.9597 281.909C34.234 282.914 34.6912 283.92 35.3313 284.743C35.9714 285.566 36.7943 286.298 37.8002 286.938C38.7146 287.486 39.7204 287.944 40.8177 288.218C41.9149 288.492 43.0122 288.584 44.2009 288.492C45.2982 288.401 46.3955 288.127 47.3099 287.578C48.3157 287.121 49.1387 286.481 49.7788 285.658C50.4188 284.835 50.9675 283.92 51.2418 282.823C51.5161 281.634 51.5161 280.537 51.2418 279.531C50.9675 278.525 50.5103 277.52 49.8702 276.697C49.2301 275.874 48.4072 275.142 47.4928 274.502C46.4869 273.862 45.4811 273.496 44.3838 273.222Z" fill="black"/>
<path d="M28.382 292.791L44.6582 295.534L44.201 298.277L37.4345 297.18L35.9714 305.684L42.6465 306.781L42.1893 309.524L25.9131 306.781L26.3703 304.038L33.5026 305.227L34.9656 296.723L27.8333 295.534L28.382 292.791Z" fill="black"/>
<path d="M25.273 311.992L41.6407 313.821L41.3664 316.564L34.5998 315.833L34.4169 317.661L40.5434 323.605L40.1776 326.805L32.9539 319.765L23.7185 325.708L24.0843 322.508L31.8566 317.479L32.0395 315.65L24.9072 314.827L25.273 311.992Z" fill="black"/>
<path d="M22.713 336.406C22.8044 335.126 23.0788 334.029 23.536 333.023C24.0846 332.017 24.7247 331.194 25.5476 330.463C26.3706 329.731 27.285 329.274 28.3823 328.908C29.3881 328.543 30.4854 328.451 31.6741 328.451C32.8628 328.543 33.8686 328.817 34.8745 329.274C35.8803 329.731 36.7947 330.371 37.5262 331.103C38.2577 331.926 38.8064 332.84 39.2636 333.846C39.6293 334.852 39.8122 336.041 39.7208 337.229C39.6293 338.51 39.355 339.607 38.8978 340.613C38.3492 341.618 37.7091 342.441 36.8861 343.173C36.0632 343.904 35.1488 344.362 34.0515 344.727C32.9542 345.093 31.857 345.185 30.7597 345.185C29.6624 345.093 28.5651 344.819 27.5593 344.362C26.5535 343.904 25.6391 343.264 24.9075 342.533C24.176 341.71 23.6274 340.796 23.1702 339.79C22.8044 338.875 22.6216 337.687 22.713 336.406ZM31.4912 331.469C30.3939 331.377 29.2967 331.56 28.3823 332.017C27.4679 332.475 26.6449 333.115 26.0963 333.846C25.5476 334.669 25.1819 335.583 25.1819 336.589C25.0904 337.595 25.3647 338.51 25.8219 339.424C26.2791 340.247 27.0107 340.978 27.9251 341.527C28.8395 342.076 29.8453 342.35 30.9426 342.441C32.0398 342.533 33.1371 342.35 34.0515 341.893C34.9659 341.436 35.7889 340.796 36.3375 340.064C36.8861 339.241 37.2519 338.327 37.3433 337.321C37.4348 336.315 37.1605 335.401 36.7033 334.486C36.1546 333.663 35.5146 332.932 34.6002 332.383C33.6858 331.834 32.6799 331.469 31.4912 331.469Z" fill="black"/>
<path d="M22.4385 347.562H24.9073C24.9073 348.111 25.0902 348.568 25.3645 349.026C25.6389 349.483 26.0961 349.848 26.8276 350.214C27.4677 350.58 28.4735 350.854 29.6622 351.037C30.8509 351.22 32.4054 351.403 34.2342 351.403L38.9891 351.586V362.833H22.6214V359.998H36.5202V353.963L33.9599 353.872C31.7653 353.78 29.8451 353.598 28.3821 353.323C26.919 353.049 25.7303 352.592 24.9073 352.134C24.0844 351.586 23.4443 350.946 23.0786 350.214C22.7128 349.483 22.4385 348.568 22.4385 347.562Z" fill="black"/>
<path d="M22.8043 375.452C22.7129 374.172 22.8957 373.074 23.2615 371.977C23.6273 370.971 24.1759 370.057 24.9989 369.234C25.8218 368.411 26.6448 367.862 27.6506 367.314C28.6564 366.856 29.7537 366.582 30.851 366.491C32.0397 366.399 33.137 366.582 34.1428 366.856C35.2401 367.222 36.1545 367.679 36.9775 368.411C37.8004 369.142 38.4405 369.965 38.9891 370.971C39.5378 371.977 39.8121 373.074 39.9035 374.263C39.995 375.543 39.8121 376.64 39.4463 377.738C39.0806 378.744 38.5319 379.658 37.709 380.481C36.9775 381.304 36.0631 381.944 35.0572 382.401C34.0514 382.858 32.9541 383.133 31.8568 383.224C30.7596 383.315 29.6623 383.133 28.565 382.858C27.4677 382.493 26.5533 382.035 25.7304 381.304C24.9074 380.572 24.2673 379.749 23.7187 378.744C23.1701 377.829 22.8957 376.732 22.8043 375.452ZM30.9424 369.417C29.8452 369.508 28.8393 369.782 27.9249 370.331C27.0105 370.88 26.3705 371.611 25.8218 372.434C25.3646 373.257 25.0903 374.263 25.1817 375.269C25.2732 376.275 25.5475 377.189 26.1876 378.012C26.8277 378.835 27.5592 379.475 28.565 379.841C29.5708 380.298 30.5767 380.481 31.674 380.389C32.7712 380.298 33.7771 380.024 34.6915 379.475C35.6059 378.926 36.2459 378.195 36.7946 377.372C37.2518 376.458 37.5261 375.543 37.4347 374.537C37.3432 373.531 37.0689 372.617 36.4288 371.794C35.7887 370.971 35.0572 370.423 34.0514 369.965C33.137 369.6 32.1312 369.417 30.9424 369.417Z" fill="black"/>
<path d="M24.0842 387.887L40.4519 386.059L41.5492 396.208L39.0803 396.483L38.2574 389.076L24.3585 390.631L24.0842 387.887Z" fill="black"/>
<path d="M25.6389 401.511L41.9152 398.859L42.3724 401.603L29.8451 403.614L43.9268 410.747L44.2926 413.215L28.0163 415.867L27.5592 413.124L39.9035 411.112L26.0961 404.163L25.6389 401.511Z" fill="black"/>
<path d="M28.8394 419.892L36.3374 423.001C36.3374 421.903 36.6117 420.897 37.2518 420.166C37.8919 419.343 38.8977 418.794 40.1779 418.52C41.1837 418.337 42.0067 418.337 42.9211 418.611C43.744 418.886 44.4755 419.434 45.1156 420.166C45.7557 420.897 46.1215 421.812 46.3958 422.909L47.8588 429.584L31.7654 433.15L31.1253 430.407L37.1604 429.036L36.4289 425.835L29.388 422.909L28.8394 419.892ZM38.3491 424.829L39.172 428.578L45.0242 427.298L44.2927 423.915C44.1098 422.909 43.6526 422.269 43.0125 421.812C42.3724 421.355 41.5495 421.172 40.7265 421.355C39.9036 421.538 39.2635 421.903 38.7148 422.543C38.2576 423.092 38.1662 423.915 38.3491 424.829Z" fill="black"/>
<path d="M171.21 92.6278L161.335 79.2776L163.164 93.8165L161.792 94.8223L148.35 88.7873L158.226 102.137L156.031 103.783L143.047 86.227L145.424 84.4896L160.146 91.1647L158.134 75.0713L160.42 73.334L173.405 90.8904L171.21 92.6278Z" fill="black"/>
<path d="M177.611 88.2403L166.09 69.7695L168.467 68.3065L177.977 83.5769L179.165 61.6314L181.36 60.2598L192.881 78.7306L190.504 80.1936L181.177 65.1975L179.897 86.7773L177.611 88.2403Z" fill="black"/>
<path d="M190.778 67.2084C190.138 66.0197 189.772 64.7395 189.59 63.4594C189.407 62.0878 189.407 60.8076 189.772 59.436C190.047 58.0644 190.595 56.8757 191.51 55.687C192.333 54.4983 193.522 53.5839 194.985 52.7609C196.722 51.8465 198.368 51.4808 200.014 51.5722C201.66 51.6637 203.123 52.2123 204.403 53.1267L203.123 55.4127C202.3 54.7726 201.477 54.4069 200.654 54.224C199.831 54.0411 199.008 54.0411 198.185 54.224C197.362 54.4069 196.722 54.6812 195.99 54.9555C194.893 55.5041 194.07 56.2356 193.522 57.15C192.973 58.0644 192.516 58.9788 192.333 59.9847C192.15 60.9905 192.15 61.9963 192.333 63.0936C192.516 64.0995 192.881 65.1053 193.339 66.0197C193.887 67.0255 194.527 67.8485 195.35 68.58C196.173 69.3115 197.088 69.8602 198.002 70.3174C199.008 70.6831 200.014 70.866 201.02 70.866C202.025 70.866 203.031 70.5917 204.037 70.043C204.677 69.6773 205.317 69.2201 205.866 68.58C206.415 67.9399 206.872 67.2084 207.237 66.3854C207.603 65.5625 207.695 64.6481 207.695 63.6423H210.346C210.438 64.831 210.255 65.9282 209.798 67.0255C209.341 68.1228 208.701 69.1286 207.786 70.043C206.963 70.9574 206.049 71.5975 205.043 72.1461C203.763 72.8777 202.391 73.2434 200.928 73.2434C199.557 73.2434 198.185 72.9691 196.813 72.5119C195.533 71.9633 194.344 71.2317 193.247 70.3174C192.241 69.4944 191.418 68.3971 190.778 67.2084Z" fill="black"/>
<path d="M435.929 51.4807L442.147 30.541L450.833 33.1013C451.748 33.3756 452.571 33.8328 453.211 34.3815C453.851 35.0216 454.4 35.6616 454.765 36.4846C455.131 37.3076 455.405 38.1305 455.497 39.0449C455.588 39.9593 455.497 40.7823 455.222 41.6052C454.857 42.7025 454.308 43.7083 453.485 44.6227C452.662 45.5371 451.748 46.0858 450.559 46.4515C449.462 46.8173 448.273 46.8173 446.993 46.4515L440.775 44.6227L438.58 52.1208L435.929 51.4807ZM441.415 42.4282L447.542 44.257C448.273 44.4398 448.913 44.4398 449.645 44.257C450.285 43.9826 450.833 43.6169 451.382 43.0682C451.839 42.5196 452.205 41.7881 452.479 41.0566C452.754 40.2336 452.754 39.4107 452.571 38.6791C452.388 37.9476 452.114 37.3075 451.656 36.7589C451.199 36.2103 450.651 35.8445 449.919 35.6616L443.975 33.9243L441.415 42.4282Z" fill="black"/>
<path d="M453.851 52.1212C454.217 51.2068 454.765 50.4753 455.588 49.9267C456.411 49.4695 457.326 49.1952 458.423 49.1037C459.52 49.1037 460.709 49.2866 461.989 49.7438C462.629 50.0181 463.361 50.2925 464.092 50.6582C464.824 51.024 465.372 51.3897 465.921 51.8469L466.287 50.7496C466.652 49.6524 466.652 48.5551 466.195 47.6407C465.738 46.7263 464.824 46.0862 463.635 45.629C462.812 45.3547 461.989 45.1718 461.075 45.2633C460.252 45.2633 459.246 45.4461 458.24 45.7205L457.966 43.6174C459.154 43.2516 460.343 43.1602 461.44 43.1602C462.538 43.1602 463.635 43.343 464.732 43.7088C466.652 44.4403 468.024 45.4461 468.756 46.9092C469.487 48.3722 469.487 50.0181 468.847 51.9384L466.561 58.2477C466.469 58.522 466.47 58.7963 466.47 58.9792C466.561 59.1621 466.744 59.345 467.018 59.4364L466.287 61.4481C466.012 61.3566 465.829 61.3566 465.647 61.2652C465.464 61.1738 465.281 61.1738 465.189 61.1738C464.549 60.9909 464.184 60.6251 464.001 60.1679C463.818 59.7107 463.818 59.345 463.909 58.9792L464.184 57.9734C463.269 58.6135 462.172 58.9792 460.892 58.9792C459.703 59.0707 458.514 58.8878 457.508 58.522C456.503 58.1563 455.68 57.6076 455.04 56.9675C454.399 56.3275 453.942 55.5045 453.759 54.6816C453.485 53.7672 453.577 52.9442 453.851 52.1212ZM463.269 56.6932C463.635 56.5103 463.909 56.3275 464.092 56.0532C464.366 55.7788 464.458 55.5959 464.549 55.4131L465.189 53.5843C464.641 53.1271 464.092 52.7613 463.543 52.3956C462.903 52.0298 462.263 51.7555 461.715 51.4812C460.434 51.024 459.246 50.9325 458.331 51.1154C457.326 51.2983 456.685 51.8469 456.411 52.7613C456.228 53.2185 456.228 53.7672 456.32 54.3158C456.411 54.8644 456.685 55.3216 457.051 55.8703C457.417 56.3275 458.057 56.6932 458.789 56.9675C459.612 57.2419 460.343 57.3333 461.257 57.3333C461.989 57.1504 462.72 56.9675 463.269 56.6932Z" fill="black"/>
<path d="M466.104 65.3799L468.481 59.7107L468.756 59.8021C469.213 59.985 469.578 59.985 470.036 59.8936C470.493 59.8021 470.95 59.5278 471.499 58.9792C472.047 58.522 472.596 57.699 473.236 56.7846C473.876 55.7788 474.516 54.4986 475.248 52.8527L477.168 48.6465L487.226 52.8527L482.014 65.3799L484.026 66.2029L481.649 71.8722L479.454 70.9578L480.917 67.4831L469.761 62.8196L468.298 66.2943L466.104 65.3799ZM472.23 61.2652L479.545 64.3741L483.843 54.1329L478.448 51.8469L477.442 54.0414C476.711 55.5959 476.071 56.8761 475.431 57.8819C474.791 58.8877 474.242 59.6193 473.693 60.1679C473.236 60.7165 472.779 61.0823 472.23 61.2652Z" fill="black"/>
<path d="M485.581 69.5849L492.53 55.3203L494.999 56.509L489.604 67.5732L503.046 60.4409L505.24 61.5382L498.291 75.7114L495.822 74.5226L501.125 63.6413L487.867 70.5907L485.581 69.5849Z" fill="black"/>
<path d="M507.892 81.2896C506.795 80.741 505.972 80.0094 505.332 79.095C504.692 78.2721 504.234 77.2662 503.96 76.2604C503.686 75.2546 503.686 74.2487 503.777 73.1515C503.869 72.0542 504.234 71.0483 504.783 70.1339C505.332 69.1281 505.972 68.3052 506.795 67.6651C507.618 67.025 508.532 66.4764 509.538 66.202C510.544 65.9277 511.549 65.7448 512.647 65.8363C513.744 65.9277 514.75 66.2935 515.847 66.8421C516.944 67.3908 517.767 68.1223 518.407 69.0367C519.048 69.8596 519.505 70.8655 519.779 71.8713C520.053 72.8771 520.145 73.9744 519.962 74.9803C519.779 75.9861 519.505 77.0834 518.956 77.9978C518.407 78.9122 517.767 79.7351 516.944 80.4666C516.121 81.1067 515.207 81.6553 514.201 81.9297C513.195 82.204 512.19 82.3869 511.092 82.2954C509.995 82.204 508.898 81.9297 507.892 81.2896ZM507.252 71.5055C506.703 72.4199 506.429 73.4258 506.429 74.4316C506.429 75.4375 506.612 76.3519 507.069 77.1748C507.526 77.9978 508.166 78.6378 508.989 79.1865C509.812 79.6437 510.727 79.8266 511.732 79.8266C512.738 79.8266 513.561 79.4608 514.476 78.9122C515.299 78.3635 516.03 77.632 516.579 76.6262C517.127 75.7118 517.402 74.7059 517.402 73.7001C517.402 72.6943 517.219 71.7799 516.762 70.8655C516.304 69.9511 515.664 69.311 514.841 68.8538C514.018 68.3966 513.104 68.2137 512.098 68.2137C511.184 68.3052 510.269 68.5795 509.355 69.1281C508.44 69.8596 507.709 70.5911 507.252 71.5055Z" fill="black"/>
<path d="M516.396 85.7702L517.676 83.7585C518.133 84.0328 518.59 84.2157 519.139 84.2157C519.596 84.2157 520.236 84.0328 520.785 83.667C521.425 83.3013 522.156 82.6612 522.888 81.7468C523.711 80.8324 524.534 79.7351 525.539 78.1807L528.1 74.4316L537.335 80.2838L528.923 93.634L526.637 92.1709L533.769 80.8324L528.831 77.7235L527.46 79.7351C526.271 81.4725 525.082 82.9355 524.076 84.0328C523.071 85.1301 522.156 85.8616 521.242 86.2274C520.327 86.6846 519.504 86.776 518.681 86.6846C518.041 86.5931 517.218 86.3188 516.396 85.7702Z" fill="black"/>
<path d="M537.884 100.218C536.878 99.4861 536.147 98.6631 535.598 97.7487C535.049 96.8343 534.684 95.8285 534.592 94.8227C534.409 93.8168 534.501 92.7196 534.775 91.7137C535.049 90.7079 535.507 89.702 536.147 88.7876C536.787 87.8732 537.61 87.1417 538.433 86.5017C539.347 85.953 540.261 85.4958 541.267 85.3129C542.273 85.1301 543.37 85.1301 544.376 85.3129C545.474 85.4958 546.479 85.953 547.394 86.6845C548.4 87.4161 549.131 88.239 549.68 89.1534C550.228 90.0678 550.594 91.0736 550.686 92.0795C550.868 93.0853 550.777 94.1826 550.503 95.1884C550.228 96.1943 549.771 97.2001 549.131 98.1145C548.491 99.0289 547.759 99.7604 546.845 100.309C545.931 100.858 545.016 101.315 544.01 101.498C543.005 101.681 541.907 101.681 540.902 101.498C539.896 101.406 538.89 100.949 537.884 100.218ZM538.25 90.525C537.61 91.4394 537.244 92.3538 537.153 93.3596C537.061 94.3655 537.153 95.2799 537.518 96.1943C537.884 97.1087 538.433 97.8402 539.256 98.3888C540.079 98.9374 540.902 99.3032 541.907 99.3032C542.913 99.3032 543.828 99.1203 544.742 98.6631C545.656 98.2059 546.388 97.5659 547.028 96.6515C547.668 95.7371 548.034 94.8227 548.125 93.8168C548.217 92.811 548.125 91.8966 547.759 90.9822C547.394 90.0678 546.845 89.3363 546.022 88.7876C545.199 88.239 544.376 87.9647 543.37 87.8732C542.365 87.8732 541.45 88.0561 540.536 88.5133C539.713 88.8791 538.981 89.6106 538.25 90.525Z" fill="black"/>
<path d="M547.028 106.619L556.904 94.0918L564.676 100.218L563.213 102.138L557.544 97.6579L549.223 108.265L547.028 106.619Z" fill="black"/>
<path d="M556.72 114.209L567.145 102.139L569.156 103.876L561.11 113.203L575.923 109.728L577.752 111.374L567.327 123.444L565.316 121.707L573.18 112.563L558.641 115.855L556.72 114.209Z" fill="black"/>
<path d="M569.522 125.455L577.294 123.992C576.654 123.078 576.38 122.163 576.471 121.158C576.563 120.152 577.02 119.146 577.934 118.231C578.574 117.5 579.306 117.134 580.129 116.86C580.952 116.677 581.775 116.677 582.689 116.951C583.604 117.226 584.427 117.683 585.158 118.506L589.913 123.078L578.849 134.508L576.929 132.588L581.043 128.29L578.757 126.095L571.534 127.467L569.522 125.455ZM579.855 124.266L582.506 126.827L586.53 122.621L584.061 120.243C583.329 119.603 582.598 119.237 581.866 119.237C581.135 119.237 580.403 119.512 579.855 120.152C579.306 120.792 578.94 121.432 578.94 122.163C578.849 122.895 579.123 123.626 579.855 124.266Z" fill="black"/>
<path d="M714.469 336.533L733.763 335.07L733.123 326.932L728.826 327.115C725.899 327.206 723.339 327.206 721.419 327.023C719.407 326.84 717.853 326.474 716.755 325.926C715.567 325.377 714.744 324.646 714.195 323.823C713.647 322.908 713.372 321.902 713.281 320.622L715.658 320.439C715.75 321.171 715.933 321.902 716.39 322.451C716.847 323 717.578 323.457 718.493 323.823C719.499 324.188 720.87 324.371 722.608 324.554C724.345 324.646 726.631 324.646 729.283 324.554L735.318 324.28L736.324 337.722L714.561 339.367L714.469 336.533Z" fill="white"/>
<path d="M714.835 344.304L736.598 344.213V346.956L718.675 347.047L736.689 359.575V362.135L714.926 362.226V359.483L732.574 359.392L714.926 346.956L714.835 344.304Z" fill="white"/>
<path d="M725.899 366.616C727.271 366.708 728.551 366.982 729.74 367.531C731.02 368.079 732.117 368.811 733.123 369.817C734.129 370.823 734.86 371.92 735.409 373.2C735.958 374.572 736.141 376.035 736.049 377.681C735.958 379.601 735.409 381.247 734.403 382.618C733.397 383.99 732.209 384.904 730.746 385.453L729.465 383.167C730.38 382.801 731.203 382.253 731.751 381.704C732.3 381.064 732.757 380.424 733.032 379.601C733.306 378.869 733.489 378.138 733.489 377.406C733.58 376.217 733.397 375.12 732.94 374.114C732.483 373.109 731.934 372.286 731.111 371.646C730.38 370.914 729.465 370.457 728.46 370C727.454 369.634 726.448 369.36 725.442 369.36C724.345 369.268 723.248 369.36 722.15 369.725C721.053 370 720.139 370.457 719.316 371.097C718.493 371.737 717.761 372.468 717.304 373.383C716.755 374.297 716.481 375.212 716.39 376.309C716.298 377.04 716.39 377.863 716.664 378.686C716.847 379.509 717.213 380.241 717.761 380.972C718.31 381.704 718.95 382.344 719.864 382.801L718.493 384.996C717.395 384.447 716.572 383.716 715.841 382.71C715.109 381.704 714.652 380.607 714.286 379.418C713.921 378.229 713.829 377.132 713.921 375.943C714.012 374.48 714.469 373.109 715.109 371.92C715.841 370.731 716.755 369.725 717.853 368.811C718.95 367.988 720.23 367.348 721.602 366.891C723.156 366.616 724.528 366.525 725.899 366.616Z" fill="white"/>
<path d="M427.151 662.756L419.561 664.31L423.584 683.787L420.841 684.335L416.818 664.859L409.228 666.413L408.68 663.944L426.602 660.195L427.151 662.756Z" fill="black"/>
<path d="M441.781 679.671C440.592 680.037 439.404 680.037 438.306 679.945C437.209 679.763 436.203 679.397 435.289 678.848C434.374 678.3 433.551 677.568 432.911 676.654C432.271 675.739 431.723 674.825 431.448 673.636C431.083 672.173 430.991 670.71 431.357 669.247C431.723 667.875 432.363 666.595 433.46 665.498C434.466 664.401 435.746 663.669 437.392 663.212C439.038 662.755 440.501 662.755 441.872 663.212C443.244 663.669 444.433 664.401 445.439 665.407C446.444 666.412 447.084 667.693 447.542 669.064C447.633 669.247 447.633 669.43 447.725 669.613C447.725 669.796 447.816 669.979 447.816 670.07L434.649 673.636C435.014 674.642 435.563 675.465 436.295 676.105C437.026 676.745 437.849 677.202 438.763 677.477C439.678 677.751 440.592 677.751 441.507 677.477C442.513 677.202 443.335 676.745 444.067 676.014C444.799 675.282 445.256 674.459 445.347 673.636H447.816C447.725 674.459 447.359 675.374 446.81 676.105C446.262 676.928 445.621 677.568 444.799 678.208C443.793 678.94 442.787 679.397 441.781 679.671ZM433.917 671.99L444.707 669.064C444.341 668.058 443.793 667.235 443.061 666.595C442.33 665.955 441.507 665.498 440.592 665.315C439.678 665.132 438.763 665.132 437.758 665.407C436.843 665.681 436.02 666.138 435.38 666.778C434.74 667.418 434.192 668.241 433.917 669.156C433.734 669.979 433.734 670.893 433.917 671.99Z" fill="black"/>
<path d="M451.931 676.471L451.108 674.094C451.656 673.911 452.022 673.637 452.388 673.271C452.662 672.905 452.937 672.265 453.028 671.534C453.119 670.802 453.119 669.796 452.937 668.608C452.754 667.419 452.388 665.956 451.839 664.219L450.559 659.738L461.166 656.172L466.287 671.534L463.635 672.448L459.246 659.372L453.577 661.293L454.308 663.67C454.948 665.773 455.314 667.602 455.497 669.065C455.68 670.528 455.68 671.808 455.405 672.722C455.131 673.728 454.765 674.46 454.125 675.1C453.668 675.649 452.937 676.106 451.931 676.471Z" fill="black"/>
<path d="M478.174 667.419C476.985 667.876 475.888 668.059 474.791 668.059C473.693 668.059 472.596 667.785 471.682 667.328C470.767 666.871 469.853 666.231 469.03 665.499C468.298 664.676 467.658 663.762 467.201 662.664C466.653 661.201 466.47 659.83 466.653 658.367C466.835 656.904 467.384 655.624 468.298 654.435C469.213 653.246 470.402 652.332 471.956 651.692C473.511 651.052 474.974 650.869 476.437 651.143C477.9 651.417 479.18 651.966 480.277 652.88C481.374 653.795 482.197 654.892 482.746 656.264C482.837 656.447 482.929 656.629 482.929 656.812C483.02 656.995 483.02 657.178 483.02 657.269L470.31 662.39C470.767 663.304 471.407 664.127 472.23 664.676C473.053 665.225 473.876 665.59 474.791 665.682C475.705 665.773 476.619 665.682 477.534 665.316C478.448 664.95 479.271 664.31 479.911 663.579C480.551 662.756 480.917 661.933 480.917 661.018L483.386 660.744C483.386 661.659 483.112 662.482 482.746 663.304C482.289 664.127 481.74 664.95 481.009 665.59C480.094 666.413 479.18 666.962 478.174 667.419ZM469.487 660.653L479.911 656.447C479.454 655.532 478.814 654.709 477.991 654.161C477.168 653.612 476.345 653.246 475.431 653.155C474.516 653.063 473.602 653.155 472.688 653.52C471.773 653.886 471.042 654.435 470.493 655.166C469.944 655.898 469.487 656.721 469.304 657.635C469.121 658.732 469.213 659.647 469.487 660.653Z" fill="black"/>
<path d="M489.329 662.482L482.289 647.761L484.849 646.48L494.999 653.521L495.913 641.177L498.473 639.988L505.514 654.71L503.137 655.899L497.833 644.743L497.01 655.624L495.456 656.356L486.403 650.138L491.707 661.294L489.329 662.482Z" fill="black"/>
<path d="M516.761 648.948C515.664 649.588 514.567 649.954 513.47 650.045C512.372 650.137 511.275 650.045 510.269 649.771C509.263 649.497 508.257 648.948 507.435 648.216C506.612 647.485 505.88 646.662 505.331 645.656C504.6 644.285 504.234 642.913 504.234 641.45C504.234 639.987 504.6 638.615 505.331 637.335C506.063 636.055 507.16 634.958 508.532 634.226C509.995 633.403 511.458 633.038 512.921 633.129C514.384 633.22 515.664 633.678 516.944 634.409C518.133 635.141 519.139 636.238 519.87 637.427C519.962 637.609 520.053 637.792 520.145 637.975C520.236 638.158 520.327 638.25 520.327 638.432L508.44 645.108C508.989 646.022 509.721 646.662 510.635 647.119C511.458 647.576 512.372 647.851 513.287 647.851C514.201 647.851 515.115 647.668 515.938 647.211C516.853 646.753 517.493 646.022 518.041 645.199C518.59 644.285 518.773 643.462 518.682 642.547L521.059 641.907C521.15 642.822 521.059 643.645 520.693 644.559C520.419 645.473 519.87 646.296 519.23 647.028C518.499 647.668 517.676 648.399 516.761 648.948ZM507.252 643.37L517.036 637.884C516.487 636.969 515.756 636.329 514.841 635.872C514.018 635.415 513.104 635.232 512.189 635.232C511.275 635.232 510.361 635.506 509.446 635.964C508.623 636.421 507.892 637.061 507.435 637.884C506.977 638.707 506.703 639.53 506.612 640.536C506.612 641.45 506.794 642.456 507.252 643.37Z" fill="black"/>
<path d="M527.643 646.846L524.259 641.542L524.534 641.359C524.9 641.085 525.174 640.719 525.357 640.353C525.54 639.896 525.54 639.347 525.448 638.616C525.357 637.884 525.082 636.97 524.534 635.873C524.077 634.775 523.345 633.404 522.431 631.849L520.053 627.826L529.471 621.791L536.97 633.495L538.89 632.307L542.273 637.61L540.17 638.982L538.067 635.69L527.551 642.456L529.654 645.748L527.643 646.846ZM527.734 639.165L534.592 634.775L528.374 625.174L523.345 628.375L524.625 630.569C525.54 632.124 526.271 633.404 526.728 634.501C527.186 635.598 527.551 636.513 527.734 637.244C527.917 638.067 527.917 638.707 527.734 639.165Z" fill="black"/>
<path d="M543.279 631.941L533.678 618.773L535.964 617.128L543.37 627.369V611.733L545.382 610.27L554.983 623.528L552.789 625.174L545.473 615.207V630.569L543.279 631.941Z" fill="black"/>
<path d="M571.625 614.933L569.156 611.915L559.098 620.145L548.674 607.526L550.777 605.789L559.647 616.579L565.499 611.732L556.629 600.942L558.732 599.205L567.785 609.904L569.522 608.441L573.545 613.287L571.625 614.933Z" fill="black"/>
<path d="M573.911 607.801L562.755 595.822L564.767 593.902L573.362 603.138L571.442 587.593L573.271 585.855L584.427 597.834L582.415 599.754L574.002 590.702L575.831 605.972L573.911 607.801Z" fill="black"/>
<path d="M588.267 594.268L576.38 583.02L578.3 581.009L583.147 585.672L589.09 579.454L584.244 574.791L586.164 572.779L598.051 584.026L596.131 586.038L590.919 581.1L584.975 587.318L590.187 592.256L588.267 594.268Z" fill="black"/>
<path d="M597.045 577.991C596.222 577.351 595.765 576.528 595.582 575.522C595.4 574.608 595.491 573.602 595.857 572.505C596.223 571.407 596.863 570.402 597.777 569.304C598.234 568.756 598.783 568.207 599.423 567.658C600.063 567.11 600.612 566.653 601.252 566.378L600.337 565.647C599.423 564.824 598.417 564.458 597.32 564.641C596.222 564.824 595.308 565.373 594.394 566.378C593.845 567.11 593.388 567.841 593.114 568.664C592.839 569.487 592.656 570.493 592.473 571.59L590.37 571.133C590.462 569.853 590.736 568.664 591.193 567.567C591.65 566.47 592.199 565.555 592.931 564.641C594.302 562.995 595.765 562.172 597.503 561.989C599.24 561.806 600.794 562.355 602.349 563.727L607.652 568.207C607.927 568.39 608.11 568.573 608.384 568.481C608.567 568.481 608.841 568.39 609.024 568.116L610.67 569.487C610.487 569.762 610.396 569.944 610.304 570.127C610.213 570.31 610.121 570.402 610.03 570.493C609.573 570.95 609.115 571.225 608.658 571.225C608.201 571.225 607.744 571.133 607.47 570.95L606.647 570.31C606.921 571.499 606.829 572.596 606.464 573.876C606.098 575.065 605.549 576.162 604.818 576.985C604.086 577.808 603.263 578.448 602.44 578.814C601.526 579.18 600.612 579.271 599.789 579.18C598.6 578.997 597.777 578.631 597.045 577.991ZM604.818 570.585C604.726 570.219 604.635 569.853 604.544 569.579C604.452 569.304 604.269 569.03 604.086 568.939L602.532 567.658C601.892 568.024 601.343 568.39 600.794 568.847C600.246 569.304 599.697 569.762 599.24 570.31C598.326 571.408 597.777 572.413 597.686 573.419C597.594 574.425 597.868 575.248 598.6 575.888C598.966 576.254 599.514 576.437 600.063 576.528C600.612 576.62 601.16 576.528 601.8 576.345C602.44 576.162 602.989 575.705 603.538 575.065C604.086 574.425 604.452 573.693 604.726 572.871C604.909 572.048 605.001 571.316 604.818 570.585Z" fill="black"/>
<path d="M160.329 609.721C161.152 608.623 162.067 607.618 163.255 606.886C164.353 606.063 165.633 605.514 167.004 605.149C168.376 604.783 169.748 604.783 171.211 604.966C172.674 605.149 174.045 605.789 175.417 606.795C177.063 607.983 178.16 609.263 178.8 610.909C179.44 612.464 179.623 614.018 179.349 615.573L176.697 615.481C176.88 614.476 176.88 613.561 176.606 612.647C176.331 611.824 175.966 611.092 175.508 610.452C174.96 609.812 174.411 609.263 173.862 608.806C172.857 608.075 171.851 607.709 170.753 607.526C169.656 607.343 168.65 607.435 167.644 607.8C166.639 608.075 165.724 608.623 164.81 609.263C163.987 609.904 163.255 610.635 162.615 611.549C161.975 612.464 161.427 613.47 161.152 614.567C160.878 615.664 160.787 616.762 160.878 617.767C160.969 618.865 161.244 619.871 161.792 620.785C162.25 621.699 162.981 622.522 163.895 623.162C164.536 623.62 165.267 623.985 166.09 624.168C166.913 624.442 167.827 624.534 168.742 624.443C169.656 624.351 170.571 624.077 171.394 623.62L172.582 625.997C171.576 626.637 170.479 627.003 169.199 627.094C168.01 627.186 166.73 627.003 165.541 626.637C164.353 626.271 163.255 625.723 162.341 625.083C161.061 624.168 160.146 623.162 159.506 621.882C158.866 620.602 158.409 619.23 158.318 617.767C158.226 616.304 158.318 614.933 158.683 613.47C158.958 612.19 159.506 610.909 160.329 609.721Z" fill="black"/>
<path d="M189.864 642.639L198.643 628.008L185.567 635.506L184.104 634.592L184.561 619.596L175.783 634.226L173.314 632.763L184.835 613.652L187.395 615.207L186.847 631.757L201.294 623.528L203.855 625.082L192.333 644.193L189.864 642.639Z" fill="black"/>
<path d="M198.003 647.027L207.97 627.002L223.423 634.683L213.365 654.708L210.804 653.428L219.582 635.689L209.25 630.568L200.472 648.307L198.003 647.027Z" fill="black"/>
<path d="M122.697 378.757C121.416 378.757 120.228 378.3 119.405 377.385L114.558 372.447L107.609 372.539C106.329 372.539 105.14 372.082 104.226 371.167C103.311 370.253 102.854 369.064 102.854 367.784L102.946 360.835L98.0079 355.988C97.0935 355.074 96.6363 353.885 96.6363 352.696C96.6363 351.416 97.0935 350.228 98.0079 349.405L102.946 344.558L102.854 337.609C102.854 336.329 103.311 335.14 104.226 334.226C105.14 333.311 106.329 332.854 107.609 332.854L114.558 332.946L119.405 328.008C120.319 327.093 121.508 326.636 122.697 326.636C123.977 326.636 125.165 327.093 125.988 328.008L130.835 332.946L137.784 332.854C139.064 332.854 140.253 333.311 141.167 334.226C141.625 334.683 141.899 335.14 142.173 335.689C140.253 335.14 138.15 334.866 136.047 334.866C123.062 334.866 112.547 345.381 112.547 358.366C112.547 371.259 123.062 381.866 136.047 381.866C140.71 381.866 145.099 380.494 148.94 377.934L153.237 382.231L164.576 393.57C165.49 394.484 166.679 394.942 167.868 394.942C169.148 394.942 170.337 394.484 171.16 393.57C172.074 392.656 172.531 391.467 172.531 390.278C172.531 388.998 172.074 387.809 171.16 386.986L155.523 371.35C158.084 367.51 159.455 363.029 159.455 358.457C159.455 356.903 159.272 355.44 158.998 353.977H161.833V357.634H164.302V347.85H161.833V351.508H158.358C156.895 346.844 154.06 342.821 150.403 339.895C150.494 336.146 150.311 332.397 147.66 329.379L151.134 325.905L153.695 328.465L155.432 326.728L148.483 319.778L146.745 321.516L149.306 324.076L145.831 327.551C142.448 324.624 138.15 324.807 133.944 324.899C131.018 321.881 128.092 318.681 123.702 318.407V313.469H127.36V311H117.576V313.469H121.234V318.407C116.753 318.681 113.827 321.881 110.992 324.899H107.792V327.368H111.998C115.016 324.442 117.85 320.601 122.514 320.784C127.177 320.601 130.012 324.35 133.029 327.368C137.236 327.368 141.899 326.728 145.099 330.202C147.477 332.397 147.843 335.323 147.934 338.249C146.928 337.609 145.922 337.152 144.825 336.695C144.642 335.14 143.911 333.677 142.813 332.488C141.442 331.117 139.613 330.385 137.693 330.385L131.749 330.477C129.097 328.008 126.629 323.984 122.514 324.076C120.594 324.076 118.765 324.807 117.393 326.179L113.278 330.385C109.621 330.477 105.049 329.379 102.306 332.397C100.934 333.768 100.202 335.597 100.202 337.518L100.294 343.461C97.825 346.113 93.8017 348.582 93.8931 352.696C93.8931 354.617 94.6246 356.445 95.9962 357.817L100.202 361.932C100.385 365.589 99.1966 370.161 102.214 372.905C103.586 374.276 105.415 375.008 107.335 375.008L113.278 374.916C115.93 377.385 118.399 381.409 122.514 381.317C124.068 381.317 125.44 380.86 126.629 379.946C125.714 379.58 124.8 379.123 123.977 378.574C123.702 378.665 123.154 378.757 122.697 378.757ZM150.86 376.471C152.049 375.465 153.146 374.368 154.152 373.179L157.444 376.471C156.438 377.66 155.341 378.757 154.152 379.763L150.86 376.471ZM169.605 391.833C169.148 392.29 168.599 392.564 167.959 392.564C167.319 392.564 166.771 392.29 166.313 391.833L155.889 381.409C157.078 380.403 158.175 379.305 159.181 378.117L169.605 388.541C170.062 388.998 170.337 389.547 170.337 390.187C170.337 390.827 170.062 391.375 169.605 391.833ZM153.146 370.71C151.866 372.539 150.22 374.093 148.391 375.465C144.734 378.117 140.527 379.488 136.047 379.488C124.434 379.488 114.924 369.979 114.924 358.366C114.924 346.753 124.434 337.243 136.047 337.243C147.66 337.243 157.169 346.753 157.169 358.366C157.169 362.755 155.798 367.053 153.146 370.71Z" fill="black"/>
<path d="M122.696 384.518C118.033 384.7 115.198 380.951 112.181 377.934C107.975 377.934 103.311 378.574 100.111 375.099C96.6362 371.899 97.3677 367.235 97.2763 363.029C94.3502 360.012 90.5097 357.177 90.6926 352.514C90.5097 347.85 94.2588 345.016 97.2763 341.998V336.695C97.2763 331.94 100.842 327.825 105.597 327.185L105.323 324.716C103.037 324.99 100.934 325.905 99.2879 327.276L95.8132 323.802L98.3735 321.241L96.6362 319.504L89.6868 326.453L91.4241 328.191L93.9844 325.63L97.4591 329.105C94.5331 332.488 94.716 336.695 94.8074 340.992C91.7899 343.918 88.5895 346.844 88.3152 351.233H83.3774V347.576H81V357.36H83.4689V353.702H88.4066C88.6809 358.183 91.8813 361.109 94.8988 363.944C94.8074 368.15 94.6245 372.447 97.5506 375.831L94.0759 379.305L91.5156 376.745L89.7782 378.482L96.7276 385.432L98.465 383.695L95.9047 381.134L99.3794 377.66C102.763 380.586 107.06 380.403 111.267 380.311C114.193 383.329 117.119 386.529 121.508 386.804V391.741H117.85V394.21H127.634V391.741H123.977V386.804C127.909 386.529 130.56 384.152 133.121 381.5C132.115 381.409 131.2 381.226 130.195 380.951C128.091 382.963 125.805 384.609 122.696 384.518Z" fill="black"/>
<path d="M154.792 358.274C154.792 347.942 146.379 339.529 136.047 339.529C125.714 339.529 117.302 347.942 117.302 358.274C117.302 368.607 125.714 377.02 136.047 377.02C146.379 377.02 154.792 368.607 154.792 358.274ZM136.047 374.734C126.994 374.734 119.588 367.327 119.588 358.274C119.588 349.222 126.994 341.815 136.047 341.815C145.099 341.815 152.506 349.222 152.506 358.274C152.506 367.327 145.099 374.734 136.047 374.734Z" fill="black"/>
<path d="M137.601 348.307L136.047 349.221C137.144 350.958 135.772 353.336 133.669 353.336C132.206 353.336 130.926 352.147 130.926 350.593C130.835 348.581 133.303 347.209 135.041 348.215L135.955 346.661C133.029 344.923 129.097 347.209 129.189 350.593C129.371 356.536 138.058 356.536 138.241 350.593C138.241 349.861 137.967 349.038 137.601 348.307Z" fill="black"/>
<path d="M130.103 369.156H131.841V367.328H133.669V365.499H131.841V363.67H130.103V365.499H128.274V367.328H130.103V369.156Z" fill="black"/>
<path d="M143.819 361.292C144.551 361.292 145.191 361.018 145.739 360.469L148.3 357.909C150.768 355.349 147.019 351.6 144.459 354.069L141.899 356.629C140.161 358.275 141.442 361.384 143.819 361.292ZM143.179 358L145.739 355.44C146.562 354.617 147.842 355.897 147.019 356.72L144.459 359.281C143.636 360.104 142.356 358.823 143.179 358Z" fill="black"/>
<path d="M110.535 340.627H113.004V343.096H110.535V340.627Z" fill="black"/>
<path d="M108.066 358.184H110.535V360.652H108.066V358.184Z" fill="black"/>
<path d="M121.417 328.557H123.885V331.026H121.417V328.557Z" fill="black"/>
<path d="M197.545 175.108C197.545 174.651 197.545 174.376 197.545 174.011C197.545 160.66 197.545 147.219 197.545 133.869C197.545 130.668 199.283 128.291 202.209 127.651C202.849 127.468 203.58 127.468 204.312 127.468C209.89 127.468 215.559 127.468 221.137 127.468C221.503 127.468 221.777 127.468 222.143 127.468C219.765 119.147 221.594 112.197 229.366 107.808C235.127 104.516 241.162 105.065 246.374 109.18C252.409 113.843 253.689 120.153 251.403 127.468C251.769 127.468 252.043 127.468 252.409 127.468C257.438 127.468 262.559 127.468 267.588 127.468C270.697 127.468 273.075 129.205 273.806 131.948C273.989 132.68 274.08 133.411 274.08 134.143C274.08 147.402 274.08 160.66 274.08 173.919C274.08 174.285 274.08 174.651 274.08 175.108C274.538 175.108 274.903 175.108 275.178 175.108C276.092 175.108 276.549 175.565 276.549 176.479C276.549 178.034 276.641 179.497 276.458 180.96C276.001 184.343 273.075 186.812 269.417 186.812C263.291 186.812 257.256 186.812 251.129 186.812C234.944 186.812 218.668 186.904 202.483 186.904C199.008 186.904 196.265 185.166 195.534 181.966C195.077 180.046 195.259 178.034 195.168 176.022C195.168 175.382 195.717 175.108 196.357 175.108C196.631 175.016 196.997 175.108 197.545 175.108ZM271.429 175.016C271.429 174.742 271.429 174.468 271.429 174.193C271.429 160.752 271.429 147.219 271.429 133.777C271.429 131.4 269.966 130.028 267.588 130.028C261.919 130.028 256.341 130.028 250.672 130.028C250.123 130.028 249.849 130.211 249.575 130.577C243.265 139.263 230.464 139.263 224.154 130.577C223.88 130.119 223.514 130.028 223.057 130.028C216.748 130.028 210.438 130.028 204.129 130.028C201.66 130.028 200.289 131.4 200.289 133.869C200.289 147.31 200.289 160.752 200.289 174.102C200.289 174.376 200.289 174.651 200.289 175.016C223.88 175.016 247.563 175.016 271.429 175.016ZM197.545 177.668C197.545 178.217 197.545 178.765 197.545 179.314C197.545 182.606 199.283 184.343 202.575 184.343C224.794 184.343 246.923 184.252 269.143 184.252C269.6 184.252 270.057 184.252 270.514 184.16C273.532 183.429 274.446 180.96 273.898 177.76C263.839 177.76 253.781 177.76 243.722 177.76C243.722 178.674 243.722 179.588 243.722 180.411C243.722 181.509 243.357 181.966 242.168 181.966C237.87 181.966 233.573 181.966 229.275 181.966C228.178 181.966 227.72 181.509 227.72 180.411C227.72 179.497 227.72 178.674 227.72 177.76C217.662 177.668 207.604 177.668 197.545 177.668ZM249.849 121.524C249.849 114.3 244.088 108.448 236.864 108.357C229.549 108.357 223.697 114.118 223.697 121.433C223.697 128.656 229.549 134.6 236.864 134.6C244.18 134.509 249.849 128.565 249.849 121.524ZM230.281 179.314C233.938 179.314 237.413 179.314 240.979 179.314C240.979 178.765 240.979 178.217 240.979 177.668C237.413 177.668 233.847 177.668 230.281 177.668C230.281 178.217 230.281 178.765 230.281 179.314Z" fill="black"/>
<path d="M226.989 151.15C227.995 149.138 228.909 147.218 229.824 145.389C229.915 145.206 230.007 144.932 230.19 144.749C230.738 143.835 231.653 143.286 232.75 143.377C233.756 143.377 234.487 144.017 234.944 145.023C236.499 148.681 238.145 152.338 239.791 155.996C239.882 156.27 239.974 156.453 240.156 156.819C240.339 156.362 240.431 155.996 240.614 155.722C241.985 151.515 243.357 147.309 244.82 143.194C245.369 141.549 246.557 140.817 248.112 141.366C249.118 141.731 249.575 142.463 249.849 143.469C250.581 146.212 251.312 148.864 251.952 151.607C252.135 152.247 252.409 152.43 252.958 152.43C255.976 152.43 258.902 152.43 261.919 152.43C262.193 152.43 262.468 152.43 262.651 152.43C263.382 152.521 263.839 152.979 263.839 153.71C263.839 154.442 263.382 154.899 262.559 154.99C258.719 154.99 254.878 154.99 251.038 154.99C250.306 154.99 249.849 154.533 249.666 153.801C248.935 150.875 248.112 148.041 247.38 145.115C247.289 144.84 247.197 144.566 247.106 144.109C246.923 144.475 246.832 144.657 246.74 144.932C245.186 149.504 243.723 154.167 242.168 158.739C241.894 159.654 241.162 160.202 240.248 160.202C239.242 160.202 238.511 159.836 238.053 158.922C237.596 158.008 237.23 157.002 236.773 156.087C235.493 153.07 234.213 150.052 232.841 147.126C232.75 146.852 232.658 146.669 232.476 146.303C231.378 148.407 230.372 150.418 229.367 152.338C229.001 152.979 228.726 153.619 228.361 154.35C227.812 155.356 226.715 155.447 225.983 154.533C225.069 153.253 224.155 151.973 223.149 150.51C222.509 151.698 221.869 152.704 221.411 153.801C220.954 154.899 220.223 155.264 219.034 155.264C215.742 155.173 212.45 155.264 209.067 155.264C208.427 155.264 207.787 155.173 207.513 154.442C207.147 153.527 207.787 152.704 208.884 152.704C210.804 152.704 212.633 152.704 214.553 152.704C215.834 152.704 217.205 152.704 218.485 152.704C219.034 152.704 219.308 152.613 219.491 152.156C219.948 151.241 220.405 150.327 220.954 149.412C221.869 147.675 223.972 147.401 225.252 148.955C225.8 149.504 226.349 150.327 226.989 151.15Z" fill="black"/>
<path d="M241.345 165.781C246.649 165.781 251.952 165.781 257.347 165.781C258.444 165.781 258.993 166.238 258.901 167.061C258.901 167.793 258.536 168.158 257.804 168.25C257.53 168.25 257.347 168.25 257.073 168.25C246.557 168.25 236.041 168.25 225.617 168.25C225.434 168.25 225.16 168.25 224.977 168.25C224.246 168.158 223.789 167.701 223.789 166.97C223.789 166.238 224.246 165.781 224.886 165.689C225.16 165.689 225.434 165.689 225.8 165.689C231.012 165.781 236.133 165.781 241.345 165.781Z" fill="black"/>
<path d="M216.199 138.35C213.822 138.35 211.353 138.35 208.975 138.35C207.969 138.35 207.421 137.71 207.604 136.795C207.787 136.064 208.335 135.881 209.067 135.881C211.627 135.881 214.096 135.881 216.656 135.881C218.942 135.881 221.32 135.881 223.606 135.881C224.703 135.881 225.343 136.978 224.703 137.801C224.429 138.167 223.88 138.35 223.423 138.35C221.045 138.35 218.668 138.35 216.199 138.35Z" fill="black"/>
<path d="M257.713 138.35C256.158 138.35 254.512 138.35 252.958 138.35C252.044 138.35 251.495 137.801 251.495 137.07C251.495 136.338 252.044 135.881 252.958 135.881C256.158 135.881 259.267 135.881 262.468 135.881C263.382 135.881 263.839 136.338 263.839 137.161C263.839 137.984 263.382 138.441 262.376 138.441C260.822 138.35 259.267 138.35 257.713 138.35Z" fill="black"/>
<path d="M215.285 167.335C216.382 166.238 217.388 165.232 218.485 164.135C218.942 163.678 219.491 163.495 219.948 163.861C220.314 164.135 220.588 164.592 220.68 165.049C220.771 165.324 220.497 165.689 220.223 165.964C218.851 167.335 217.479 168.707 216.108 170.17C215.559 170.719 215.102 170.536 214.553 170.17C214.005 169.713 213.548 169.347 213.09 168.89C212.542 168.341 212.359 167.518 212.816 166.97C213.273 166.421 214.096 166.421 214.828 167.061C215.011 166.97 215.102 167.152 215.285 167.335Z" fill="black"/>
<path d="M212.633 143.56C213.822 143.56 215.01 143.56 216.199 143.56C217.022 143.56 217.571 144.017 217.571 144.749C217.571 145.572 217.113 146.029 216.29 146.029C213.822 146.029 211.444 146.029 208.975 146.029C208.152 146.029 207.695 145.572 207.695 144.749C207.695 144.017 208.152 143.56 208.975 143.469C210.164 143.56 211.444 143.56 212.633 143.56Z" fill="black"/>
<path d="M259.45 143.561C260.456 143.561 261.462 143.561 262.376 143.561C263.382 143.561 263.839 144.018 263.839 144.841C263.839 145.664 263.382 146.121 262.468 146.121C260.456 146.121 258.353 146.121 256.341 146.121C255.427 146.121 254.969 145.572 254.969 144.841C254.969 144.018 255.518 143.561 256.433 143.561C257.438 143.561 258.444 143.561 259.45 143.561Z" fill="black"/>
<path d="M232.933 117.774C232.933 116.494 232.933 115.214 232.933 114.025C232.933 112.836 233.298 112.471 234.487 112.471C235.95 112.471 237.413 112.471 238.876 112.471C240.065 112.471 240.431 112.836 240.522 114.117C240.522 115.305 240.522 116.403 240.522 117.683C241.894 117.683 243.174 117.683 244.454 117.683C245.643 117.683 246.1 118.049 246.1 119.329C246.1 120.883 246.1 122.346 246.1 123.901C246.1 124.815 245.551 125.272 244.637 125.272C243.265 125.272 241.985 125.272 240.522 125.272C240.522 126.461 240.522 127.65 240.522 128.838C240.522 130.301 240.156 130.667 238.785 130.667C237.413 130.667 236.133 130.667 234.761 130.667C233.39 130.667 233.024 130.301 233.024 128.93C233.024 127.833 233.024 126.735 233.024 125.547C233.024 125.547 233.024 125.455 232.933 125.272C231.653 125.272 230.372 125.272 229.092 125.272C227.812 125.272 227.446 124.906 227.446 123.718C227.446 122.255 227.446 120.883 227.446 119.512C227.446 118.231 227.812 117.866 229.092 117.866C230.281 117.774 231.561 117.774 232.933 117.774ZM229.915 122.712C231.287 122.712 232.475 122.712 233.756 122.712C235.219 122.712 235.493 122.986 235.493 124.449C235.493 125.638 235.493 126.827 235.493 128.015C236.316 128.015 237.047 128.015 237.87 128.015C237.87 126.827 237.87 125.638 237.87 124.449C237.87 123.078 238.236 122.803 239.608 122.803C240.888 122.803 242.168 122.803 243.448 122.803C243.448 121.889 243.448 121.066 243.448 120.243C242.077 120.243 240.796 120.243 239.516 120.243C238.328 120.243 237.87 119.877 237.87 118.689C237.87 117.5 237.87 116.311 237.87 115.122C237.047 115.122 236.316 115.122 235.493 115.122C235.493 116.311 235.493 117.5 235.493 118.689C235.493 120.06 235.127 120.426 233.756 120.426C232.475 120.426 231.195 120.426 229.915 120.426C229.915 121.157 229.915 121.889 229.915 122.712Z" fill="black"/>
<path d="M292.094 554.581L284.687 548.638L276.275 526.235C275.635 524.406 273.897 523.126 271.886 523.126H267.771V521.572C267.771 519.011 265.668 516.908 263.108 516.908C260.547 516.908 258.444 519.011 258.444 521.572V523.126H200.837C200.014 523.126 199.283 523.858 199.283 524.681V568.297C199.283 569.12 200.014 569.852 200.837 569.852H211.901C212.816 574.972 217.662 578.356 222.691 577.441C226.532 576.801 229.641 573.692 230.281 569.852H264.845C265.759 574.972 270.606 578.356 275.635 577.441C279.475 576.801 282.584 573.692 283.224 569.852H291.18C292.003 569.852 292.734 569.12 292.734 568.297V555.862C292.643 555.313 292.46 554.856 292.094 554.581ZM275.269 532.453L281.121 547.998H265.668C265.119 547.998 264.662 547.541 264.662 546.992V533.367C264.662 532.819 265.119 532.362 265.668 532.362L275.269 532.453ZM261.553 521.48C261.553 520.657 262.285 519.926 263.108 519.926C263.931 519.926 264.662 520.657 264.662 521.48V523.035H261.553V521.48ZM221.045 574.515C217.571 574.515 214.827 571.772 214.827 568.297C214.827 564.823 217.571 562.079 221.045 562.079C224.52 562.079 227.263 564.823 227.263 568.297C227.263 571.681 224.52 574.515 221.045 574.515ZM273.989 574.515C270.514 574.515 267.771 571.772 267.771 568.297C267.771 564.823 270.514 562.079 273.989 562.079C277.464 562.079 280.207 564.823 280.207 568.297C280.207 571.681 277.464 574.515 273.989 574.515ZM289.534 560.434H284.87V563.542H289.534V566.651H283.133C282.218 561.531 277.372 558.148 272.343 559.062C268.503 559.702 265.394 562.811 264.754 566.651H230.189C229.275 561.531 224.429 558.148 219.399 559.062C215.559 559.702 212.45 562.811 211.81 566.651H202.3V563.542H210.073V560.434H202.3V551.107H258.353V547.998H202.3V526.235H271.794C272.434 526.235 272.983 526.601 273.257 527.241L274.08 529.344H265.576C263.29 529.344 261.462 531.173 261.462 533.459V547.083C261.462 549.369 263.29 551.198 265.576 551.198H282.676L289.534 556.593V560.434Z" fill="black"/>
<path d="M263.108 560.434H231.927V563.543H263.108V560.434Z" fill="black"/>
<path d="M264.662 507.49H261.553V513.708H264.662V507.49Z" fill="black"/>
<path d="M253.298 509.542L251.099 511.74L255.755 516.396L257.953 514.197L253.298 509.542Z" fill="black"/>
<path d="M272.855 509.569L268.199 514.225L270.398 516.423L275.053 511.768L272.855 509.569Z" fill="black"/>
<path d="M258.444 533.093C258.444 530.99 256.798 529.344 254.695 529.344H246.557C244.454 529.344 242.808 530.99 242.808 533.093V541.231C242.808 543.334 244.454 544.98 246.557 544.98H254.695C256.798 544.98 258.444 543.334 258.444 541.231V533.093ZM255.335 533.093V541.231C255.335 541.597 255.061 541.871 254.695 541.871H246.557C246.191 541.871 245.917 541.597 245.917 541.231V533.093C245.917 532.727 246.191 532.453 246.557 532.453H254.695C255.061 532.453 255.335 532.727 255.335 533.093Z" fill="black"/>
<path d="M223.423 543.792H218.668V539.494H214.37V534.739H218.668V530.441H223.423V534.739H227.72V539.494H223.423V543.792Z" fill="#1B1C20"/>
<path d="M505.514 508.953H431.174C428.705 508.953 426.693 510.965 426.693 513.434V558.788C426.693 561.257 428.705 563.268 431.174 563.268H451.016C451.656 563.268 452.205 562.72 452.205 562.08C452.205 561.44 451.656 560.891 451.016 560.891H431.174C430.077 560.891 429.162 559.976 429.162 558.879V556.41H507.526V558.879C507.526 559.976 506.612 560.891 505.514 560.891H456.777C456.137 560.891 455.588 561.44 455.588 562.08C455.588 562.72 456.137 563.268 456.777 563.268H462.721L461.623 567.932H459.795C456.594 567.932 454.034 570.492 454.034 573.692V574.058C454.034 575.521 455.223 576.801 456.777 576.801H480.003C481.466 576.801 482.746 575.613 482.746 574.058V573.692C482.746 570.492 480.186 567.932 476.985 567.932H475.156L474.059 563.268H505.514C507.983 563.268 509.995 561.257 509.995 558.788V513.434C509.903 510.965 507.983 508.953 505.514 508.953ZM480.186 573.601V573.967C480.186 574.15 480.094 574.241 479.911 574.241H456.686C456.503 574.241 456.411 574.15 456.411 573.967V573.601C456.411 571.772 457.874 570.309 459.703 570.309H462.538H474.059H476.894C478.722 570.309 480.186 571.772 480.186 573.601ZM472.596 567.84H464.092L465.189 563.177H471.499L472.596 567.84ZM429.162 553.85V513.434C429.162 512.336 430.077 511.422 431.174 511.422H505.514C506.612 511.422 507.526 512.336 507.526 513.434V553.85H429.162Z" fill="black"/>
<path d="M472.047 514.988H434.557C433.003 514.988 431.722 516.268 431.722 517.823V547.358C431.722 548.912 433.003 550.193 434.557 550.193H472.047C473.602 550.193 474.882 548.912 474.882 547.358V528.613C474.882 527.973 474.333 527.424 473.693 527.424C473.053 527.424 472.504 527.973 472.504 528.613V547.358C472.504 547.541 472.322 547.724 472.139 547.724H464.732L464.366 545.255C464.092 543.426 462.903 541.78 461.075 541.14L458.606 540.226C460.617 538.305 462.08 535.288 462.355 531.813C462.629 531.539 462.903 531.265 462.995 530.807C463.361 529.436 463.818 526.052 461.623 523.401C461.257 522.944 460.16 521.663 458.148 521.206C457.508 521.023 456.868 521.023 456.137 521.023C455.405 521.115 454.582 521.023 453.759 520.749C452.296 520.292 450.65 520.292 449.187 520.658C447.999 520.932 445.804 521.755 444.158 524.041C442.787 525.961 442.421 528.338 443.152 530.99C443.244 531.447 443.518 531.722 443.884 531.996C444.158 535.471 445.621 538.488 447.724 540.408L445.53 541.231C443.792 541.872 442.512 543.517 442.238 545.346L441.872 547.815H434.557C434.374 547.815 434.191 547.632 434.191 547.449V517.914C434.191 517.731 434.374 517.549 434.557 517.549H472.047C472.23 517.549 472.413 517.731 472.413 517.914V523.035C472.413 523.675 472.962 524.224 473.602 524.224C474.242 524.224 474.79 523.675 474.79 523.035V517.914C474.882 516.268 473.602 514.988 472.047 514.988ZM446.17 525.504C447.267 523.949 448.913 523.309 449.736 523.126C450.193 523.035 450.742 522.944 451.199 522.944C451.839 522.944 452.388 523.035 453.028 523.218C454.125 523.584 455.222 523.675 456.32 523.584C456.777 523.584 457.143 523.584 457.508 523.675C458.697 523.949 459.429 524.772 459.703 525.138C460.892 526.51 460.892 528.704 460.709 529.802C459.612 529.619 458.971 528.979 458.148 527.698C457.508 526.875 456.594 526.327 455.588 526.235C454.582 526.144 453.485 526.51 452.754 527.241C450.833 529.07 447.816 529.893 445.438 529.984C445.073 528.156 445.347 526.693 446.17 525.504ZM446.444 532.179C448.547 531.996 451.931 531.265 454.399 528.887C454.765 528.613 455.131 528.521 455.314 528.613C455.68 528.613 455.954 528.796 456.137 529.07C457.143 530.442 458.057 531.63 459.886 532.088C459.429 536.659 456.503 540.226 453.119 540.226C449.827 540.134 446.993 536.659 446.444 532.179ZM444.707 545.712C444.798 544.706 445.53 543.883 446.444 543.517L450.285 542.054C451.199 542.42 452.113 542.603 453.119 542.603C454.125 542.603 455.222 542.42 456.137 541.963L460.16 543.517C461.075 543.883 461.715 544.706 461.897 545.712L462.172 547.815H444.433L444.707 545.712Z" fill="black"/>
<path d="M502.04 514.988H480.186C478.631 514.988 477.351 516.268 477.351 517.823V547.358C477.351 548.912 478.631 550.193 480.186 550.193H502.04C503.594 550.193 504.874 548.912 504.874 547.358V517.823C504.874 516.268 503.594 514.988 502.04 514.988ZM502.04 547.815H480.186C480.003 547.815 479.82 547.632 479.82 547.449V544.066H493.353C493.993 544.066 494.542 543.517 494.542 542.877C494.542 542.237 493.993 541.689 493.353 541.689H479.82V517.914C479.82 517.731 480.003 517.549 480.186 517.549H502.04C502.223 517.549 502.406 517.731 502.406 517.914V541.689H498.931C498.291 541.689 497.742 542.237 497.742 542.877C497.742 543.517 498.291 544.066 498.931 544.066H502.406V547.449C502.497 547.632 502.314 547.815 502.04 547.815Z" fill="black"/>
<path d="M483.477 528.247H498.748C499.388 528.247 499.936 527.698 499.936 527.058C499.936 526.418 499.388 525.869 498.748 525.869H483.477C482.837 525.869 482.289 526.418 482.289 527.058C482.197 527.698 482.746 528.247 483.477 528.247Z" fill="black"/>
<path d="M499.936 536.843C499.936 536.203 499.388 535.654 498.748 535.654H483.477C482.837 535.654 482.289 536.203 482.289 536.843C482.289 537.483 482.837 538.032 483.477 538.032H498.748C499.388 538.032 499.936 537.483 499.936 536.843Z" fill="black"/>
<path d="M483.477 523.309H491.707C492.347 523.309 492.896 522.76 492.896 522.12C492.896 521.48 492.347 520.932 491.707 520.932H483.477C482.837 520.932 482.289 521.48 482.289 522.12C482.197 522.76 482.746 523.309 483.477 523.309Z" fill="black"/>
<path d="M483.477 533.184H491.707C492.347 533.184 492.896 532.635 492.896 531.995C492.896 531.355 492.347 530.807 491.707 530.807H483.477C482.837 530.807 482.289 531.355 482.289 531.995C482.197 532.635 482.746 533.184 483.477 533.184Z" fill="black"/>
<defs>
<linearGradient id="paint0_linear_1058_1596" x1="448.669" y1="356.185" x2="688.383" y2="484.509" gradientUnits="userSpaceOnUse">
<stop stop-color="#1A7177"/>
<stop offset="1" stop-color="#00A0A8"/>
</linearGradient>
</defs>
</svg>
