<svg width="356" height="99" viewBox="0 0 356 99" fill="none" xmlns="http://www.w3.org/2000/svg">
<g clip-path="url(#clip0_977_2972)">
<path d="M355.5 0H0.5V99H355.5V0Z" fill="white"/>
<path d="M120.796 58.2462C120.755 58.1419 120.675 58.0536 120.57 58.0053C120.465 57.9575 120.344 57.9575 120.239 57.9897C118.368 58.6794 115.266 59.2408 112.822 59.2408C107.474 59.2408 104.925 57.8049 104.925 49.6481C104.925 43.1277 105.708 40.0557 112.822 40.0557C114.838 40.0557 117.279 40.3444 119.658 41.0342C119.851 41.0904 120.061 41.0021 120.15 40.8257C120.81 39.381 121.769 37.0445 122.474 35.3246C122.572 35.0867 122.665 34.8603 122.751 34.6499C122.807 34.5376 122.807 34.4093 122.759 34.297C122.71 34.1847 122.614 34.0965 122.493 34.0564C119.363 33.0618 115.629 32.4844 112.265 32.4844C101.062 32.4844 96.0693 37.7378 96.0693 49.528C96.0693 61.4864 101.062 66.8201 112.265 66.8201C115.072 66.8201 120.605 66.2347 123.275 65.1758C123.485 65.0875 123.598 64.8471 123.517 64.6383L120.796 58.2462Z" fill="#0066B3"/>
<path d="M34.1387 33.7831C34.1387 33.5589 34.3206 33.3772 34.5451 33.3772H57.5529C57.8404 33.3772 58.0347 33.6728 57.9228 33.9399L55.0737 40.7595C54.9983 40.9396 54.8264 41.0215 54.6628 41.0053C54.6496 41.0067 54.6359 41.0073 54.6222 41.0073H42.7548V65.5211C42.7548 65.7455 42.5729 65.927 42.3484 65.927H34.5451C34.3206 65.927 34.1387 65.7455 34.1387 65.5211V33.7831Z" fill="#0066B3"/>
<path fill-rule="evenodd" clip-rule="evenodd" d="M59.8521 49.5264C59.8521 37.262 64.117 32.4844 75.0698 32.4844C86.1105 32.4844 90.4152 37.262 90.4152 49.5264C90.4152 61.9773 86.1105 66.8201 75.0698 66.8201C64.117 66.8201 59.8521 61.9773 59.8521 49.5264ZM68.5253 49.6481C68.5253 58.2949 70.0795 59.6739 75.0698 59.6739C80.1558 59.6739 81.7419 58.2949 81.7419 49.6481C81.7419 40.4417 80.0121 39.6224 75.0698 39.6224C70.2233 39.6224 68.5253 40.4417 68.5253 49.6481Z" fill="#0066B3"/>
<path d="M186.347 58.2462C186.306 58.1419 186.226 58.0536 186.121 58.0053C186.016 57.9575 185.895 57.9575 185.79 57.9897C183.919 58.6794 180.817 59.2408 178.373 59.2408C173.025 59.2408 170.476 57.8049 170.476 49.6481C170.476 43.1277 171.259 40.0557 178.373 40.0557C180.389 40.0557 182.829 40.3444 185.209 41.0342C185.403 41.0904 185.612 41.0021 185.701 40.8257C186.361 39.381 187.32 37.0445 188.025 35.3246C188.122 35.0867 188.215 34.8603 188.302 34.6499C188.358 34.5376 188.358 34.4093 188.31 34.297C188.262 34.1847 188.165 34.0965 188.044 34.0564C184.914 33.0618 181.18 32.4844 177.816 32.4844C166.613 32.4844 161.62 37.7378 161.62 49.528C161.62 61.4864 166.613 66.8201 177.816 66.8201C180.623 66.8201 186.157 66.2347 188.826 65.1758C189.036 65.0875 189.149 64.8471 189.068 64.6383L186.347 58.2462Z" fill="#EE2F53"/>
<path d="M193.172 65.927H201.186C201.356 65.927 201.519 65.8131 201.568 65.651C202.802 61.7789 203.898 57.42 204.824 52.6148C205.619 48.5121 206.105 44.6251 206.393 41.0072H214.226V65.5211C214.226 65.7451 214.408 65.927 214.633 65.927H222.436C222.66 65.927 222.842 65.7451 222.842 65.5211V33.7829C222.842 33.5588 222.66 33.3771 222.436 33.3771H198.62C198.401 33.3771 198.223 33.5475 198.214 33.7667C197.995 38.6289 197.475 44.0756 196.485 49.9847C195.519 55.6995 194.122 60.8537 192.783 65.4072C192.71 65.6671 192.904 65.927 193.172 65.927Z" fill="#EE2F53"/>
<path d="M265.79 33.3771C265.566 33.3771 265.384 33.5588 265.384 33.7829V65.5211C265.384 65.7451 265.566 65.927 265.79 65.927H273.594C273.818 65.927 274 65.7451 274 65.5211V41.0072H285.868C285.881 41.0072 285.895 41.0065 285.908 41.0052C286.072 41.0214 286.244 40.9394 286.319 40.7593L289.168 33.9398C289.28 33.6726 289.086 33.3771 288.798 33.3771H265.79Z" fill="#EE2F53"/>
<path d="M127.261 33.3772C126.979 33.3772 126.783 33.6543 126.88 33.9158L138.736 65.9324C137.063 69.4448 135.205 73.142 133.079 77.2633C132.939 77.5331 133.133 77.8594 133.438 77.8594H141.872C142.025 77.8594 142.167 77.7715 142.236 77.6354C148.477 64.9531 153.069 53.7108 159.348 33.9135C159.434 33.6518 159.24 33.3772 158.964 33.3772H151.13C150.948 33.3772 150.788 33.5008 150.738 33.675C148.32 42.1385 146.091 48.7633 143.508 55.1475L135.543 33.6404C135.485 33.4823 135.333 33.3772 135.162 33.3772H127.261Z" fill="#EE2F53"/>
<path d="M227.742 33.9157C227.645 33.6541 227.841 33.3771 228.123 33.3771H236.024C236.194 33.3771 236.346 33.4822 236.405 33.6402L244.369 55.1475C246.953 48.7629 249.182 42.1385 251.599 33.6749C251.649 33.5007 251.81 33.3771 251.992 33.3771H259.825C260.102 33.3771 260.295 33.6517 260.21 33.9134C253.931 53.7104 249.338 64.9527 243.097 77.6354C243.028 77.7715 242.887 77.859 242.733 77.859H234.299C233.995 77.859 233.801 77.5331 233.94 77.2633C236.066 73.142 237.925 69.4448 239.598 65.9319L227.742 33.9157Z" fill="#EE2F53"/>
<path d="M313.667 33.3771H321.466C321.694 33.3771 321.872 33.5552 321.864 33.782V63.6611C321.864 63.8393 321.759 64.001 321.588 64.058C317.973 65.4349 311.88 66.8196 306.421 66.8196C297.07 66.8196 293.285 62.7375 293.098 52.3137C293.09 52.2893 293.09 33.8306 293.09 33.8306V33.782C293.09 33.5552 293.268 33.3771 293.496 33.3771H301.295C301.522 33.3771 301.701 33.5552 301.701 33.782V52.1355C301.88 57.6753 303.253 59.004 307.981 59.004C309.882 59.004 311.571 58.7771 313.261 58.3073V33.782C313.261 33.5552 313.44 33.3771 313.667 33.3771Z" fill="#EE2F53"/>
</g>
<defs>
<clipPath id="clip0_977_2972">
<rect width="355" height="99" fill="white" transform="translate(0.5)"/>
</clipPath>
</defs>
</svg>
