<svg width="20" height="20" viewBox="0 0 20 20" fill="none" xmlns="http://www.w3.org/2000/svg">
<path d="M7.87863 6.46442C7.48811 6.0739 6.85495 6.0739 6.46442 6.46442C6.0739 6.85495 6.0739 7.48811 6.46442 7.87863L8.58574 9.99995L6.46442 12.1213C6.0739 12.5118 6.0739 13.145 6.46442 13.5355C6.85495 13.926 7.48811 13.926 7.87863 13.5355L9.99995 11.4142L12.1213 13.5355C12.5118 13.926 13.145 13.926 13.5355 13.5355C13.926 13.145 13.926 12.5118 13.5355 12.1213L11.4142 9.99995L13.5355 7.87863C13.926 7.48811 13.926 6.85495 13.5355 6.46442C13.145 6.0739 12.5118 6.0739 12.1213 6.46442L9.99995 8.58574L7.87863 6.46442ZM2.92889 2.92889C-0.974342 6.83212 -0.974342 13.1678 2.92889 17.071C6.83212 20.9743 13.1678 20.9743 17.071 17.071C20.9743 13.1678 20.9743 6.83212 17.071 2.92889C13.1678 -0.974342 6.83212 -0.974342 2.92889 2.92889ZM15.6568 15.6568C12.5385 18.7752 7.46144 18.7752 4.3431 15.6568C1.22476 12.5385 1.22476 7.46144 4.3431 4.3431C7.46144 1.22476 12.5385 1.22476 15.6568 4.3431C18.7752 7.46144 18.7752 12.5385 15.6568 15.6568Z" fill="#C61C1C"/>
</svg>
