<svg width="24" height="24" viewBox="0 0 24 24" fill="none" xmlns="http://www.w3.org/2000/svg">
<path d="M5 21C4.44772 21 4 20.5523 4 20C4 19.4477 4.44772 19 5 19H19C19.5523 19 20 19.4477 20 20C20 20.5523 19.5523 21 19 21H5Z" fill="#6C8BC9"/>
<path d="M11.6202 16.92C11.4974 16.8724 11.3853 16.801 11.2902 16.71L7.29019 12.71C7.19695 12.6168 7.12299 12.5061 7.07253 12.3842C7.02207 12.2624 6.99609 12.1319 6.99609 12C6.99609 11.8681 7.02207 11.7376 7.07253 11.6158C7.12299 11.4939 7.19695 11.3832 7.29019 11.29C7.38342 11.1968 7.49411 11.1228 7.61594 11.0723C7.73776 11.0219 7.86833 10.9959 8.00019 10.9959C8.13204 10.9959 8.26261 11.0219 8.38444 11.0723C8.50626 11.1228 8.61695 11.1968 8.71019 11.29L11.0002 13.59V4C11.0002 3.73478 11.1055 3.48043 11.2931 3.29289C11.4806 3.10536 11.735 3 12.0002 3C12.2654 3 12.5198 3.10536 12.7073 3.29289C12.8948 3.48043 13.0002 3.73478 13.0002 4V13.59L15.2902 11.29C15.4785 11.1017 15.7339 10.9959 16.0002 10.9959C16.2665 10.9959 16.5219 11.1017 16.7102 11.29C16.8985 11.4783 17.0043 11.7337 17.0043 12C17.0043 12.2663 16.8985 12.5217 16.7102 12.71L12.7102 16.71C12.6151 16.801 12.5029 16.8724 12.3802 16.92C12.2605 16.9729 12.1311 17.0002 12.0002 17.0002C11.8693 17.0002 11.7399 16.9729 11.6202 16.92Z" fill="#6C8BC9"/>
</svg>
