<svg width="24" height="24" viewBox="0 0 24 24" fill="none" xmlns="http://www.w3.org/2000/svg">
<path d="M12 8C13.1045 8 14 7.10456 14 6C14 4.89544 13.1045 4 12 4C10.8955 4 10 4.89544 10 6C10 7.10456 10.8955 8 12 8Z" fill="#6C8BC9"/>
<path d="M12 14C13.1045 14 14 13.1046 14 12C14 10.8954 13.1045 10 12 10C10.8955 10 10 10.8954 10 12C10 13.1046 10.8955 14 12 14Z" fill="#6C8BC9"/>
<path d="M12 20C13.1045 20 14 19.1046 14 18C14 16.8954 13.1045 16 12 16C10.8955 16 10 16.8954 10 18C10 19.1046 10.8955 20 12 20Z" fill="#6C8BC9"/>
</svg>
