<svg width="24" height="24" viewBox="0 0 24 24" fill="none" xmlns="http://www.w3.org/2000/svg">
<path fill-rule="evenodd" clip-rule="evenodd" d="M14.253 3.38657C15.0341 2.60552 16.3004 2.60552 17.0815 3.38657L20.617 6.9221C21.3981 7.70315 21.3981 8.96948 20.617 9.75053L9.8033 20.5642C9.522 20.8455 9.14047 21.0036 8.74264 21.0036H4.5C3.67157 21.0036 3 20.332 3 19.5036V15.2609C3 14.8631 3.15804 14.4816 3.43934 14.2003L11.4166 6.22304C11.4192 6.22033 11.4219 6.21764 11.4246 6.21495C11.4273 6.21226 11.43 6.20959 11.4327 6.20694L14.253 3.38657ZM12.1317 8.33631L5 15.468V19.0036H8.53553L15.6673 11.8718L12.1317 8.33631ZM17.0815 10.4576L13.5459 6.9221L15.6673 4.80078L19.2028 8.33631L17.0815 10.4576Z" fill="#C7D2E3"/>
</svg>
