<svg width="104" height="104" viewBox="0 0 104 104" fill="none" xmlns="http://www.w3.org/2000/svg">
<g clip-path="url(#clip0_1183_1916)">
<path d="M94.7362 17.9585C80.4271 14.0378 66.0339 7.93288 53.1125 0.303925C52.4261 -0.101308 51.5744 -0.101308 50.8883 0.303925C37.5942 8.15205 23.9787 13.9267 9.26337 17.9585C8.31274 18.2187 7.65381 19.0828 7.65381 20.0686V42.4216C7.65381 65.4403 18.273 80.6771 27.1816 89.4055C36.7723 98.8031 47.9442 104 52.0004 104C56.0562 104 67.228 98.8031 76.8188 89.4055C85.7272 80.6773 96.3457 65.4405 96.3457 42.4216V20.0684C96.3457 19.0828 95.6868 18.2187 94.7362 17.9585ZM91.9704 42.4214C91.9704 63.9207 82.0659 78.1384 73.7564 86.2801C64.3252 95.5212 54.2415 99.6243 52.0004 99.6243C49.7593 99.6243 39.675 95.5212 30.2435 86.2801C21.9343 78.1382 12.0293 63.9207 12.0293 42.4214V21.7291C26.1014 17.7336 39.2066 12.1577 52.0008 4.7227C64.4755 11.9604 78.2345 17.8137 91.9704 21.7283V42.4214Z" fill="#00A0A8"/>
<path d="M32.6092 21.4844C32.1664 20.3601 30.8963 19.8078 29.7718 20.2508C25.8637 21.7907 21.8524 23.2081 17.8494 24.4638C16.9372 24.7502 16.3164 25.5952 16.3164 26.5511V34.9993C16.3164 36.2075 17.2961 37.1869 18.5041 37.1869C19.712 37.1869 20.6917 36.2075 20.6917 34.9993V28.1499C24.2827 26.9881 27.8699 25.7029 31.3757 24.3214C32.5 23.8788 33.0522 22.6087 32.6092 21.4844Z" fill="#00A0A8"/>
<path d="M36.7649 21.8994C37.0584 21.8994 37.3564 21.8403 37.6422 21.7156L37.6824 21.6981C38.7893 21.2131 39.2877 19.9247 38.8027 18.8182C38.3172 17.7114 37.0215 17.2107 35.9159 17.6954L35.8805 17.7106C34.7731 18.1942 34.273 19.4816 34.7566 20.5887C35.1155 21.4105 35.9209 21.8994 36.7649 21.8994Z" fill="#00A0A8"/>
<path d="M78.0651 70.5418C77.0541 69.881 75.6985 70.1652 75.0369 71.1765C73.2342 73.9358 71.1192 76.578 68.75 79.0291C66.8016 81.0445 64.6903 82.923 62.4749 84.612C61.5143 85.3445 61.3295 86.7172 62.0617 87.6782C62.4925 88.2427 63.144 88.5396 63.8029 88.5396C64.2656 88.5396 64.7318 88.3936 65.1279 88.0913C67.5176 86.2691 69.7947 84.2433 71.8954 82.0703C74.457 79.4207 76.7462 76.5608 78.6999 73.5697C79.361 72.5582 79.0764 71.2025 78.0651 70.5418Z" fill="#00A0A8"/>
<path d="M57.3944 88.0429L57.2689 88.1169C56.2234 88.7224 55.8661 90.0606 56.4714 91.1061C56.877 91.8068 57.6113 92.1981 58.3667 92.1981C58.7385 92.1981 59.1159 92.1032 59.4606 91.9031L59.6054 91.818C60.648 91.2074 60.9982 89.8674 60.3876 88.8248C59.7766 87.7825 58.4364 87.433 57.3944 88.0429Z" fill="#00A0A8"/>
<path d="M37.0881 47.535C35.7448 46.1915 33.9583 45.4521 32.0583 45.4521C30.1583 45.4521 28.3716 46.1917 27.0277 47.535C24.2544 50.3089 24.2544 54.8223 27.0277 57.5959L39.9456 70.5135C41.2891 71.8565 43.0756 72.5961 44.9758 72.5961C46.876 72.5961 48.6625 71.8565 50.0062 70.5131L76.9732 43.5458C79.7463 40.7713 79.7463 36.2585 76.9728 33.4857C75.6293 32.1422 73.8428 31.4028 71.9424 31.4028C70.0422 31.4028 68.2557 32.1424 66.912 33.4857L44.9756 55.4221L37.0881 47.535ZM70.006 36.5797C70.523 36.0627 71.211 35.7781 71.9426 35.7781C72.6747 35.7781 73.362 36.0627 73.8794 36.5797C74.9468 37.6471 74.9468 39.3846 73.879 40.4524L46.9124 67.4193C46.3954 67.9362 45.7074 68.2208 44.9758 68.2208C44.2441 68.2208 43.5562 67.9362 43.039 67.4193L30.1215 54.5022C29.0537 53.4343 29.0537 51.6968 30.1211 50.6294C30.6382 50.1124 31.3262 49.8274 32.0581 49.8274C32.7899 49.8274 33.4775 50.112 33.9945 50.629L43.4286 60.0633C43.8391 60.4734 44.3953 60.704 44.9756 60.704C45.5559 60.704 46.1121 60.4736 46.5222 60.0633L70.006 36.5797Z" fill="#00A0A8"/>
</g>
<defs>
<clipPath id="clip0_1183_1916">
<rect width="104" height="104" fill="white"/>
</clipPath>
</defs>
</svg>
