<svg width="141" height="34" viewBox="0 0 141 34" fill="none" xmlns="http://www.w3.org/2000/svg">
<path fill-rule="evenodd" clip-rule="evenodd" d="M141 0.5H0V33.5H141V0.5ZM8.714 14.668C8.49 15.256 8.378 15.8487 8.378 16.446C8.378 17.0807 8.49467 17.706 8.728 18.322C8.97067 18.938 9.30667 19.4887 9.736 19.974C10.1747 20.4593 10.6927 20.8513 11.29 21.15C11.8967 21.4393 12.5593 21.584 13.278 21.584C13.6887 21.584 14.1087 21.5327 14.538 21.43C14.9673 21.3273 15.3733 21.178 15.756 20.982C16.1387 20.786 16.4747 20.5433 16.764 20.254C17.0627 19.9647 17.2867 19.638 17.436 19.274L15.56 18.168C15.4573 18.42 15.322 18.6347 15.154 18.812C14.986 18.98 14.7993 19.12 14.594 19.232C14.398 19.3347 14.188 19.414 13.964 19.47C13.7493 19.5167 13.5393 19.54 13.334 19.54C12.9327 19.54 12.5687 19.4607 12.242 19.302C11.9247 19.134 11.6493 18.91 11.416 18.63C11.192 18.35 11.0193 18.028 10.898 17.664C10.7767 17.3 10.716 16.922 10.716 16.53C10.716 16.166 10.7673 15.8067 10.87 15.452C10.9727 15.0973 11.1313 14.78 11.346 14.5C11.5607 14.22 11.8313 13.9913 12.158 13.814C12.4847 13.6367 12.8673 13.548 13.306 13.548C13.5113 13.548 13.7213 13.5713 13.936 13.618C14.1507 13.6553 14.3607 13.73 14.566 13.842C14.7713 13.9447 14.958 14.0847 15.126 14.262C15.3033 14.43 15.448 14.6447 15.56 14.906L17.324 13.674C16.988 13.03 16.4747 12.5073 15.784 12.106C15.1027 11.7047 14.2953 11.504 13.362 11.504C12.578 11.504 11.878 11.6487 11.262 11.938C10.646 12.2273 10.1233 12.6053 9.694 13.072C9.26467 13.5387 8.938 14.0707 8.714 14.668ZM23.228 11.56H21.156L17.53 21.5H19.882L20.638 19.274H23.732L24.502 21.5H26.854L23.228 11.56ZM22.192 14.178L23.354 17.692H21.002L22.192 14.178ZM34.9449 9.53C35.0755 9.26867 35.1409 8.984 35.1409 8.676H33.7689C33.7222 8.928 33.5729 9.138 33.3209 9.306C33.0782 9.474 32.7889 9.558 32.4529 9.558C32.2755 9.558 32.1075 9.53467 31.9489 9.488C31.7902 9.44133 31.6502 9.38067 31.5289 9.306C31.4169 9.222 31.3235 9.12867 31.2489 9.026C31.1835 8.914 31.1509 8.79733 31.1509 8.676H29.7649C29.7649 8.984 29.8302 9.26867 29.9609 9.53C30.0915 9.782 30.2735 10.0013 30.5069 10.188C30.7495 10.3653 31.0342 10.5053 31.3609 10.608C31.6875 10.7107 32.0515 10.762 32.4529 10.762C32.8542 10.762 33.2182 10.7107 33.5449 10.608C33.8715 10.5053 34.1515 10.3653 34.3849 10.188C34.6275 10.0013 34.8142 9.782 34.9449 9.53ZM34.8609 11.56L30.1849 17.93V11.56H27.8749V21.5H29.6529L34.2729 15.284V21.5H36.5689V11.56H34.8609ZM43.0606 13.576H46.0846V11.56H37.7266V13.576H40.7646V21.5H43.0606V13.576ZM53.3295 15.508H52.8115V11.56H50.5155V21.5H52.8115V17.594H53.5395L56.5775 21.5H59.1395L55.2475 16.362L58.8175 11.56H56.2275L53.3295 15.508ZM61.7802 21.15C62.3869 21.4393 63.0589 21.584 63.7962 21.584C64.5149 21.584 65.1776 21.444 65.7842 21.164C66.3909 20.884 66.9136 20.5153 67.3522 20.058C67.7909 19.5913 68.1316 19.0547 68.3742 18.448C68.6262 17.8413 68.7522 17.2113 68.7522 16.558C68.7522 15.9327 68.6356 15.3167 68.4022 14.71C68.1689 14.1033 67.8376 13.562 67.4082 13.086C66.9789 12.61 66.4609 12.2273 65.8542 11.938C65.2476 11.6487 64.5756 11.504 63.8382 11.504C63.1196 11.504 62.4569 11.644 61.8502 11.924C61.2436 12.1947 60.7162 12.5633 60.2682 13.03C59.8296 13.4873 59.4842 14.0193 59.2322 14.626C58.9896 15.2327 58.8682 15.8627 58.8682 16.516C58.8682 17.16 58.9849 17.7853 59.2182 18.392C59.4609 18.9987 59.7969 19.54 60.2262 20.016C60.6556 20.4827 61.1736 20.8607 61.7802 21.15ZM61.3742 17.664C61.2622 17.3 61.2062 16.9267 61.2062 16.544C61.2062 16.1707 61.2576 15.8067 61.3602 15.452C61.4722 15.088 61.6356 14.766 61.8502 14.486C62.0742 14.206 62.3449 13.982 62.6622 13.814C62.9889 13.6367 63.3716 13.548 63.8102 13.548C64.2302 13.548 64.5989 13.632 64.9162 13.8C65.2429 13.9587 65.5182 14.178 65.7422 14.458C65.9662 14.7287 66.1342 15.046 66.2462 15.41C66.3582 15.7647 66.4142 16.1333 66.4142 16.516C66.4142 16.8893 66.3582 17.258 66.2462 17.622C66.1436 17.9767 65.9849 18.2987 65.7702 18.588C65.5556 18.868 65.2849 19.0967 64.9582 19.274C64.6316 19.4513 64.2489 19.54 63.8102 19.54C63.3902 19.54 63.0169 19.456 62.6902 19.288C62.3636 19.12 62.0882 18.896 61.8642 18.616C61.6496 18.336 61.4862 18.0187 61.3742 17.664ZM77.961 15.55V21.5H80.257V11.56H77.779L75.189 16.754L72.613 11.56H70.121V21.5H72.417V15.55L74.573 19.876H75.805L77.961 15.55ZM90.6196 11.56H82.2616V21.5H84.5716V13.576H88.3236V21.5H90.6196V11.56ZM97.3432 11.56H95.2712L91.6452 21.5H93.9972L94.7532 19.274H97.8472L98.6172 21.5H100.969L97.3432 11.56ZM96.3072 14.178L97.4692 17.692H95.1172L96.3072 14.178ZM108.248 21.5H110.544V11.56H108.248V15.41H104.286V11.56H101.99V21.5H104.286V17.426H108.248V21.5ZM119.531 11.56L114.855 17.93V11.56H112.545V21.5H114.323L118.943 15.284V21.5H121.239V11.56H119.531ZM130.209 11.56L125.533 17.93V11.56H123.223V21.5H125.001L129.621 15.284V21.5H131.917V11.56H130.209Z" fill="white"/>
</svg>
