<svg width="20" height="20" viewBox="0 0 20 20" fill="none" xmlns="http://www.w3.org/2000/svg">
<path fill-rule="evenodd" clip-rule="evenodd" d="M10 20C15.5228 20 20 15.5228 20 10C20 4.47715 15.5228 0 10 0C4.47715 0 0 4.47715 0 10C0 15.5228 4.47715 20 10 20ZM13.7657 7.32414C14.1562 7.71467 14.1562 8.34783 13.7657 8.73836L9.7657 12.7384C9.37518 13.1289 8.74201 13.1289 8.35149 12.7384L6.35149 10.7384C5.96096 10.3478 5.96096 9.71467 6.35149 9.32414C6.74201 8.93362 7.37518 8.93362 7.7657 9.32414L9.05859 10.617L12.3515 7.32414C12.742 6.93362 13.3752 6.93362 13.7657 7.32414Z" fill="#37C570"/>
</svg>
