<svg width="20" height="20" viewBox="0 0 20 20" fill="none" xmlns="http://www.w3.org/2000/svg">
<path fillRule="evenodd" clipRule="evenodd" d="M10 20C15.5228 20 20 15.5228 20 10C20 4.47715 15.5228 0 10 0C4.47715 0 0 4.47715 0 10C0 15.5228 4.47715 20 10 20ZM10 5C10.5523 5 11 5.44772 11 6V11C11 11.5523 10.5523 12 10 12C9.44771 12 9 11.5523 9 11V6C9 5.44772 9.44772 5 10 5ZM11 15C11 15.5523 10.5523 16 10 16C9.44772 16 9 15.5523 9 15C9 14.4477 9.44772 14 10 14C10.5523 14 11 14.4477 11 15Z" fill="#EF8C03"/>
</svg>
